<mxfile host="Electron" modified="2023-09-15T15:00:50.885Z" agent="Mozilla/5.0 (Macintosh; Intel Mac OS X 10_15_7) AppleWebKit/537.36 (KHTML, like Gecko) draw.io/21.6.8 Chrome/114.0.5735.289 Electron/25.5.0 Safari/537.36" etag="fmE-1QOkmr35wfHChq7t" version="21.6.8" type="device">
  <diagram name="Page-1" id="jeAw0ufUYv4il5zJov62">
    <mxGraphModel dx="2738" dy="1220" grid="1" gridSize="10" guides="1" tooltips="1" connect="1" arrows="1" fold="1" page="1" pageScale="1" pageWidth="827" pageHeight="1169" math="0" shadow="0">
      <root>
        <mxCell id="0" />
        <mxCell id="1" parent="0" />
        <mxCell id="z-Ndg-riCOtdtnBjnOYB-56" value="" style="edgeStyle=orthogonalEdgeStyle;rounded=0;orthogonalLoop=1;jettySize=auto;html=1;" edge="1" parent="1" source="y5XBQ-hBJ8qoXVHfpkLI-5" target="y5XBQ-hBJ8qoXVHfpkLI-7">
          <mxGeometry relative="1" as="geometry">
            <Array as="points">
              <mxPoint x="495" y="320" />
              <mxPoint x="495" y="320" />
            </Array>
          </mxGeometry>
        </mxCell>
        <mxCell id="z-Ndg-riCOtdtnBjnOYB-60" value="API calls from Web Browser" style="edgeLabel;html=1;align=center;verticalAlign=middle;resizable=0;points=[];" vertex="1" connectable="0" parent="z-Ndg-riCOtdtnBjnOYB-56">
          <mxGeometry x="0.5368" y="2" relative="1" as="geometry">
            <mxPoint x="-2" y="-15" as="offset" />
          </mxGeometry>
        </mxCell>
        <mxCell id="z-Ndg-riCOtdtnBjnOYB-63" style="edgeStyle=orthogonalEdgeStyle;rounded=0;orthogonalLoop=1;jettySize=auto;html=1;exitX=0.75;exitY=0;exitDx=0;exitDy=0;entryX=0.918;entryY=1.06;entryDx=0;entryDy=0;entryPerimeter=0;" edge="1" parent="1" target="y5XBQ-hBJ8qoXVHfpkLI-26">
          <mxGeometry relative="1" as="geometry">
            <mxPoint x="885.5454545454545" y="200" as="targetPoint" />
            <mxPoint x="885.4999999999995" y="240" as="sourcePoint" />
          </mxGeometry>
        </mxCell>
        <mxCell id="z-Ndg-riCOtdtnBjnOYB-168" value="HTML, CSS,JS, Images" style="edgeLabel;html=1;align=center;verticalAlign=middle;resizable=0;points=[];" vertex="1" connectable="0" parent="z-Ndg-riCOtdtnBjnOYB-63">
          <mxGeometry x="0.0758" y="1" relative="1" as="geometry">
            <mxPoint x="1" y="2" as="offset" />
          </mxGeometry>
        </mxCell>
        <mxCell id="y5XBQ-hBJ8qoXVHfpkLI-5" value="Content Delivery Network (CDN)" style="rounded=0;whiteSpace=wrap;html=1;" parent="1" vertex="1">
          <mxGeometry x="-120" y="220" width="1100" height="70" as="geometry" />
        </mxCell>
        <mxCell id="z-Ndg-riCOtdtnBjnOYB-58" value="" style="edgeStyle=orthogonalEdgeStyle;rounded=0;orthogonalLoop=1;jettySize=auto;html=1;" edge="1" parent="1">
          <mxGeometry relative="1" as="geometry">
            <mxPoint x="563" y="396" as="sourcePoint" />
            <mxPoint x="563" y="515" as="targetPoint" />
            <Array as="points">
              <mxPoint x="563" y="400" />
              <mxPoint x="563" y="400" />
            </Array>
          </mxGeometry>
        </mxCell>
        <mxCell id="z-Ndg-riCOtdtnBjnOYB-62" value="API calls from Web Browser" style="edgeLabel;html=1;align=center;verticalAlign=middle;resizable=0;points=[];" vertex="1" connectable="0" parent="z-Ndg-riCOtdtnBjnOYB-58">
          <mxGeometry x="-0.1" y="3" relative="1" as="geometry">
            <mxPoint as="offset" />
          </mxGeometry>
        </mxCell>
        <mxCell id="y5XBQ-hBJ8qoXVHfpkLI-7" value="Application Programming Interface(API) Gateway" style="rounded=0;whiteSpace=wrap;html=1;" parent="1" vertex="1">
          <mxGeometry x="-30" y="336" width="860" height="60" as="geometry" />
        </mxCell>
        <mxCell id="z-Ndg-riCOtdtnBjnOYB-165" style="edgeStyle=orthogonalEdgeStyle;rounded=0;orthogonalLoop=1;jettySize=auto;html=1;exitX=0.5;exitY=0;exitDx=0;exitDy=0;startArrow=classic;startFill=1;" edge="1" parent="1" source="y5XBQ-hBJ8qoXVHfpkLI-8">
          <mxGeometry relative="1" as="geometry">
            <mxPoint x="395.090909090909" y="400" as="targetPoint" />
          </mxGeometry>
        </mxCell>
        <mxCell id="z-Ndg-riCOtdtnBjnOYB-166" value="Inter-service API Communications" style="edgeLabel;html=1;align=center;verticalAlign=middle;resizable=0;points=[];" vertex="1" connectable="0" parent="z-Ndg-riCOtdtnBjnOYB-165">
          <mxGeometry x="-0.0629" y="2" relative="1" as="geometry">
            <mxPoint as="offset" />
          </mxGeometry>
        </mxCell>
        <mxCell id="y5XBQ-hBJ8qoXVHfpkLI-8" value="&#xa;&lt;span style=&quot;font-size:11.0pt;font-family:&amp;quot;Calibri&amp;quot;,sans-serif;&#xa;mso-ascii-theme-font:minor-latin;mso-fareast-font-family:Calibri;mso-fareast-theme-font:&#xa;minor-latin;mso-hansi-theme-font:minor-latin;mso-bidi-font-family:&amp;quot;Times New Roman&amp;quot;;&#xa;mso-bidi-theme-font:minor-bidi;mso-ansi-language:EN-US;mso-fareast-language:&#xa;EN-US;mso-bidi-language:AR-SA&quot; lang=&quot;EN-US&quot;&gt;Takeda Informatica IICS admin team &lt;/span&gt;&#xa;&#xa;&#xa;&#xa;" style="rounded=0;whiteSpace=wrap;html=1;" parent="1" vertex="1">
          <mxGeometry x="-178" y="516" width="1150" height="560" as="geometry" />
        </mxCell>
        <mxCell id="y5XBQ-hBJ8qoXVHfpkLI-18" style="edgeStyle=orthogonalEdgeStyle;rounded=0;orthogonalLoop=1;jettySize=auto;html=1;" parent="1" source="y5XBQ-hBJ8qoXVHfpkLI-9" edge="1">
          <mxGeometry relative="1" as="geometry">
            <mxPoint x="33" y="597" as="targetPoint" />
          </mxGeometry>
        </mxCell>
        <mxCell id="z-Ndg-riCOtdtnBjnOYB-40" style="edgeStyle=orthogonalEdgeStyle;rounded=0;orthogonalLoop=1;jettySize=auto;html=1;exitX=1;exitY=0.5;exitDx=0;exitDy=0;" edge="1" parent="1" source="y5XBQ-hBJ8qoXVHfpkLI-9" target="z-Ndg-riCOtdtnBjnOYB-4">
          <mxGeometry relative="1" as="geometry" />
        </mxCell>
        <mxCell id="z-Ndg-riCOtdtnBjnOYB-127" value="Poll" style="edgeLabel;html=1;align=center;verticalAlign=middle;resizable=0;points=[];" vertex="1" connectable="0" parent="z-Ndg-riCOtdtnBjnOYB-40">
          <mxGeometry x="-0.0333" y="-1" relative="1" as="geometry">
            <mxPoint as="offset" />
          </mxGeometry>
        </mxCell>
        <mxCell id="z-Ndg-riCOtdtnBjnOYB-94" style="edgeStyle=orthogonalEdgeStyle;rounded=0;orthogonalLoop=1;jettySize=auto;html=1;exitX=0.5;exitY=1;exitDx=0;exitDy=0;entryX=0;entryY=0.25;entryDx=0;entryDy=0;" edge="1" parent="1" source="y5XBQ-hBJ8qoXVHfpkLI-9" target="z-Ndg-riCOtdtnBjnOYB-29">
          <mxGeometry relative="1" as="geometry" />
        </mxCell>
        <mxCell id="z-Ndg-riCOtdtnBjnOYB-98" value="Publish Event" style="edgeLabel;html=1;align=center;verticalAlign=middle;resizable=0;points=[];" vertex="1" connectable="0" parent="z-Ndg-riCOtdtnBjnOYB-94">
          <mxGeometry x="-0.1097" y="-1" relative="1" as="geometry">
            <mxPoint as="offset" />
          </mxGeometry>
        </mxCell>
        <mxCell id="y5XBQ-hBJ8qoXVHfpkLI-9" value="User Management Microservice" style="rounded=0;whiteSpace=wrap;html=1;" parent="1" vertex="1">
          <mxGeometry x="110" y="567" width="123" height="60" as="geometry" />
        </mxCell>
        <mxCell id="z-Ndg-riCOtdtnBjnOYB-41" style="edgeStyle=orthogonalEdgeStyle;rounded=0;orthogonalLoop=1;jettySize=auto;html=1;exitX=1;exitY=0.5;exitDx=0;exitDy=0;" edge="1" parent="1" source="y5XBQ-hBJ8qoXVHfpkLI-10" target="z-Ndg-riCOtdtnBjnOYB-26">
          <mxGeometry relative="1" as="geometry" />
        </mxCell>
        <mxCell id="z-Ndg-riCOtdtnBjnOYB-126" value="Poll" style="edgeLabel;html=1;align=center;verticalAlign=middle;resizable=0;points=[];" vertex="1" connectable="0" parent="z-Ndg-riCOtdtnBjnOYB-41">
          <mxGeometry x="0.1596" y="-1" relative="1" as="geometry">
            <mxPoint as="offset" />
          </mxGeometry>
        </mxCell>
        <mxCell id="z-Ndg-riCOtdtnBjnOYB-99" style="edgeStyle=orthogonalEdgeStyle;rounded=0;orthogonalLoop=1;jettySize=auto;html=1;exitX=0.5;exitY=0;exitDx=0;exitDy=0;entryX=0;entryY=0.75;entryDx=0;entryDy=0;" edge="1" parent="1" source="y5XBQ-hBJ8qoXVHfpkLI-10" target="z-Ndg-riCOtdtnBjnOYB-29">
          <mxGeometry relative="1" as="geometry" />
        </mxCell>
        <mxCell id="z-Ndg-riCOtdtnBjnOYB-100" value="Publish Event" style="edgeLabel;html=1;align=center;verticalAlign=middle;resizable=0;points=[];" vertex="1" connectable="0" parent="z-Ndg-riCOtdtnBjnOYB-99">
          <mxGeometry x="-0.0997" y="-2" relative="1" as="geometry">
            <mxPoint as="offset" />
          </mxGeometry>
        </mxCell>
        <mxCell id="y5XBQ-hBJ8qoXVHfpkLI-10" value="Trip Management Microservice" style="rounded=0;whiteSpace=wrap;html=1;" parent="1" vertex="1">
          <mxGeometry x="110" y="768" width="120" height="65" as="geometry" />
        </mxCell>
        <mxCell id="z-Ndg-riCOtdtnBjnOYB-43" style="edgeStyle=orthogonalEdgeStyle;rounded=0;orthogonalLoop=1;jettySize=auto;html=1;exitX=0;exitY=0.5;exitDx=0;exitDy=0;" edge="1" parent="1" source="y5XBQ-hBJ8qoXVHfpkLI-11" target="z-Ndg-riCOtdtnBjnOYB-30">
          <mxGeometry relative="1" as="geometry" />
        </mxCell>
        <mxCell id="z-Ndg-riCOtdtnBjnOYB-65" style="edgeStyle=orthogonalEdgeStyle;rounded=0;orthogonalLoop=1;jettySize=auto;html=1;exitX=1;exitY=0.5;exitDx=0;exitDy=0;entryX=0.003;entryY=0.661;entryDx=0;entryDy=0;entryPerimeter=0;" edge="1" parent="1" target="z-Ndg-riCOtdtnBjnOYB-64">
          <mxGeometry relative="1" as="geometry">
            <mxPoint x="750" y="567" as="sourcePoint" />
            <mxPoint x="973.5" y="539" as="targetPoint" />
            <Array as="points">
              <mxPoint x="750" y="530" />
              <mxPoint x="901" y="530" />
              <mxPoint x="901" y="545" />
              <mxPoint x="974" y="545" />
              <mxPoint x="974" y="531" />
            </Array>
          </mxGeometry>
        </mxCell>
        <mxCell id="z-Ndg-riCOtdtnBjnOYB-71" value="API" style="edgeLabel;html=1;align=center;verticalAlign=middle;resizable=0;points=[];" vertex="1" connectable="0" parent="z-Ndg-riCOtdtnBjnOYB-65">
          <mxGeometry x="0.4672" y="1" relative="1" as="geometry">
            <mxPoint x="-56" y="-14" as="offset" />
          </mxGeometry>
        </mxCell>
        <mxCell id="z-Ndg-riCOtdtnBjnOYB-68" style="edgeStyle=orthogonalEdgeStyle;rounded=0;orthogonalLoop=1;jettySize=auto;html=1;exitX=0.75;exitY=1;exitDx=0;exitDy=0;" edge="1" parent="1" source="y5XBQ-hBJ8qoXVHfpkLI-11" target="z-Ndg-riCOtdtnBjnOYB-67">
          <mxGeometry relative="1" as="geometry">
            <mxPoint x="1102.5" y="820" as="targetPoint" />
            <mxPoint x="800.0000000000002" y="673.0900000000001" as="sourcePoint" />
            <Array as="points" />
          </mxGeometry>
        </mxCell>
        <mxCell id="z-Ndg-riCOtdtnBjnOYB-69" value="Mail Poll" style="edgeLabel;html=1;align=center;verticalAlign=middle;resizable=0;points=[];" vertex="1" connectable="0" parent="z-Ndg-riCOtdtnBjnOYB-68">
          <mxGeometry x="0.0883" relative="1" as="geometry">
            <mxPoint as="offset" />
          </mxGeometry>
        </mxCell>
        <mxCell id="z-Ndg-riCOtdtnBjnOYB-73" style="edgeStyle=orthogonalEdgeStyle;rounded=0;orthogonalLoop=1;jettySize=auto;html=1;exitX=1;exitY=0.5;exitDx=0;exitDy=0;" edge="1" parent="1" source="y5XBQ-hBJ8qoXVHfpkLI-11" target="z-Ndg-riCOtdtnBjnOYB-72">
          <mxGeometry relative="1" as="geometry">
            <Array as="points">
              <mxPoint x="860" y="602" />
              <mxPoint x="860" y="624" />
            </Array>
          </mxGeometry>
        </mxCell>
        <mxCell id="z-Ndg-riCOtdtnBjnOYB-128" value="Poll" style="edgeLabel;html=1;align=center;verticalAlign=middle;resizable=0;points=[];" vertex="1" connectable="0" parent="z-Ndg-riCOtdtnBjnOYB-73">
          <mxGeometry x="-0.2458" y="-1" relative="1" as="geometry">
            <mxPoint as="offset" />
          </mxGeometry>
        </mxCell>
        <mxCell id="y5XBQ-hBJ8qoXVHfpkLI-11" value="Third-Party &amp;amp; Email Integration Microservice" style="rounded=0;whiteSpace=wrap;html=1;" parent="1" vertex="1">
          <mxGeometry x="723" y="572" width="120" height="60" as="geometry" />
        </mxCell>
        <mxCell id="z-Ndg-riCOtdtnBjnOYB-44" style="edgeStyle=orthogonalEdgeStyle;rounded=0;orthogonalLoop=1;jettySize=auto;html=1;exitX=0;exitY=0.5;exitDx=0;exitDy=0;" edge="1" parent="1" source="y5XBQ-hBJ8qoXVHfpkLI-12" target="z-Ndg-riCOtdtnBjnOYB-31">
          <mxGeometry relative="1" as="geometry" />
        </mxCell>
        <mxCell id="z-Ndg-riCOtdtnBjnOYB-129" value="Poll" style="edgeLabel;html=1;align=center;verticalAlign=middle;resizable=0;points=[];" vertex="1" connectable="0" parent="z-Ndg-riCOtdtnBjnOYB-44">
          <mxGeometry x="-0.0944" y="1" relative="1" as="geometry">
            <mxPoint as="offset" />
          </mxGeometry>
        </mxCell>
        <mxCell id="z-Ndg-riCOtdtnBjnOYB-83" style="edgeStyle=orthogonalEdgeStyle;rounded=0;orthogonalLoop=1;jettySize=auto;html=1;exitX=0.563;exitY=-0.024;exitDx=0;exitDy=0;entryX=1;entryY=0.75;entryDx=0;entryDy=0;exitPerimeter=0;" edge="1" parent="1" source="y5XBQ-hBJ8qoXVHfpkLI-12" target="z-Ndg-riCOtdtnBjnOYB-29">
          <mxGeometry relative="1" as="geometry">
            <mxPoint x="859.33" y="770.42" as="sourcePoint" />
            <mxPoint x="610.0000000000001" y="693.5775" as="targetPoint" />
            <Array as="points">
              <mxPoint x="818" y="771" />
              <mxPoint x="610" y="771" />
              <mxPoint x="610" y="733" />
            </Array>
          </mxGeometry>
        </mxCell>
        <mxCell id="z-Ndg-riCOtdtnBjnOYB-84" value="Publish Event" style="edgeLabel;html=1;align=center;verticalAlign=middle;resizable=0;points=[];" vertex="1" connectable="0" parent="z-Ndg-riCOtdtnBjnOYB-83">
          <mxGeometry x="-0.1388" y="-3" relative="1" as="geometry">
            <mxPoint as="offset" />
          </mxGeometry>
        </mxCell>
        <mxCell id="y5XBQ-hBJ8qoXVHfpkLI-12" value="Notification Microservice" style="rounded=0;whiteSpace=wrap;html=1;" parent="1" vertex="1">
          <mxGeometry x="750" y="810" width="120" height="60" as="geometry" />
        </mxCell>
        <mxCell id="z-Ndg-riCOtdtnBjnOYB-42" style="edgeStyle=orthogonalEdgeStyle;rounded=0;orthogonalLoop=1;jettySize=auto;html=1;exitX=1;exitY=0.5;exitDx=0;exitDy=0;" edge="1" parent="1" source="y5XBQ-hBJ8qoXVHfpkLI-14" target="z-Ndg-riCOtdtnBjnOYB-27">
          <mxGeometry relative="1" as="geometry" />
        </mxCell>
        <mxCell id="z-Ndg-riCOtdtnBjnOYB-125" value="Poll" style="edgeLabel;html=1;align=center;verticalAlign=middle;resizable=0;points=[];" vertex="1" connectable="0" parent="z-Ndg-riCOtdtnBjnOYB-42">
          <mxGeometry x="0.136" y="-3" relative="1" as="geometry">
            <mxPoint as="offset" />
          </mxGeometry>
        </mxCell>
        <mxCell id="y5XBQ-hBJ8qoXVHfpkLI-14" value="Analytics &amp;amp; Reporting Microservice" style="rounded=0;whiteSpace=wrap;html=1;" parent="1" vertex="1">
          <mxGeometry x="170" y="963.5" width="120" height="60" as="geometry" />
        </mxCell>
        <mxCell id="z-Ndg-riCOtdtnBjnOYB-108" style="edgeStyle=orthogonalEdgeStyle;rounded=0;orthogonalLoop=1;jettySize=auto;html=1;exitX=0;exitY=0.5;exitDx=0;exitDy=0;exitPerimeter=0;" edge="1" parent="1" target="z-Ndg-riCOtdtnBjnOYB-107">
          <mxGeometry relative="1" as="geometry">
            <mxPoint x="-27" y="597" as="sourcePoint" />
          </mxGeometry>
        </mxCell>
        <mxCell id="z-Ndg-riCOtdtnBjnOYB-113" value="Batch Data Sync &lt;br&gt;for Analytics" style="edgeLabel;html=1;align=center;verticalAlign=middle;resizable=0;points=[];" vertex="1" connectable="0" parent="z-Ndg-riCOtdtnBjnOYB-108">
          <mxGeometry x="-0.0398" y="-1" relative="1" as="geometry">
            <mxPoint as="offset" />
          </mxGeometry>
        </mxCell>
        <mxCell id="z-Ndg-riCOtdtnBjnOYB-109" style="edgeStyle=orthogonalEdgeStyle;rounded=0;orthogonalLoop=1;jettySize=auto;html=1;exitX=0;exitY=0.5;exitDx=0;exitDy=0;exitPerimeter=0;entryX=0.75;entryY=0;entryDx=0;entryDy=0;entryPerimeter=0;" edge="1" parent="1" target="z-Ndg-riCOtdtnBjnOYB-107">
          <mxGeometry relative="1" as="geometry">
            <mxPoint x="-30" y="803" as="sourcePoint" />
          </mxGeometry>
        </mxCell>
        <mxCell id="z-Ndg-riCOtdtnBjnOYB-114" value="Batch Data Sync&lt;br&gt;for Analytics" style="edgeLabel;html=1;align=center;verticalAlign=middle;resizable=0;points=[];" vertex="1" connectable="0" parent="z-Ndg-riCOtdtnBjnOYB-109">
          <mxGeometry x="-0.5175" y="4" relative="1" as="geometry">
            <mxPoint x="-13" as="offset" />
          </mxGeometry>
        </mxCell>
        <mxCell id="z-Ndg-riCOtdtnBjnOYB-59" style="edgeStyle=orthogonalEdgeStyle;rounded=0;orthogonalLoop=1;jettySize=auto;html=1;exitX=0.5;exitY=0;exitDx=0;exitDy=0;entryX=0.894;entryY=1.08;entryDx=0;entryDy=0;entryPerimeter=0;" edge="1" parent="1" source="y5XBQ-hBJ8qoXVHfpkLI-25">
          <mxGeometry relative="1" as="geometry">
            <mxPoint x="1037.82" y="510" as="sourcePoint" />
            <mxPoint x="889.9999999999999" y="294.0000000000001" as="targetPoint" />
            <Array as="points">
              <mxPoint x="980" y="336" />
              <mxPoint x="980" y="320" />
              <mxPoint x="890" y="320" />
            </Array>
          </mxGeometry>
        </mxCell>
        <mxCell id="z-Ndg-riCOtdtnBjnOYB-167" value="HTML, CSS, JS,Images" style="edgeLabel;html=1;align=center;verticalAlign=middle;resizable=0;points=[];" vertex="1" connectable="0" parent="z-Ndg-riCOtdtnBjnOYB-59">
          <mxGeometry x="0.0255" y="3" relative="1" as="geometry">
            <mxPoint as="offset" />
          </mxGeometry>
        </mxCell>
        <mxCell id="y5XBQ-hBJ8qoXVHfpkLI-25" value="Road Warriors Web &amp;amp; Mobile UI Application for Customers" style="rounded=0;whiteSpace=wrap;html=1;" parent="1" vertex="1">
          <mxGeometry x="850" y="334" width="270" height="64" as="geometry" />
        </mxCell>
        <mxCell id="z-Ndg-riCOtdtnBjnOYB-55" value="" style="edgeStyle=orthogonalEdgeStyle;rounded=0;orthogonalLoop=1;jettySize=auto;html=1;" edge="1" parent="1" source="y5XBQ-hBJ8qoXVHfpkLI-26" target="y5XBQ-hBJ8qoXVHfpkLI-5">
          <mxGeometry relative="1" as="geometry" />
        </mxCell>
        <mxCell id="z-Ndg-riCOtdtnBjnOYB-61" value="API Calls from Web Browser" style="edgeLabel;html=1;align=center;verticalAlign=middle;resizable=0;points=[];" vertex="1" connectable="0" parent="z-Ndg-riCOtdtnBjnOYB-55">
          <mxGeometry x="-0.3455" y="1" relative="1" as="geometry">
            <mxPoint as="offset" />
          </mxGeometry>
        </mxCell>
        <mxCell id="y5XBQ-hBJ8qoXVHfpkLI-26" value="Web, Mobile Browser" style="rounded=0;whiteSpace=wrap;html=1;" parent="1" vertex="1">
          <mxGeometry x="-180" y="60" width="1160" height="90" as="geometry" />
        </mxCell>
        <mxCell id="y5XBQ-hBJ8qoXVHfpkLI-27" value="" style="shape=mxgraph.cisco.computers_and_peripherals.web_browser;html=1;pointerEvents=1;dashed=0;fillColor=#036897;strokeColor=#ffffff;strokeWidth=2;verticalLabelPosition=bottom;verticalAlign=top;align=center;outlineConnect=0;" parent="1" vertex="1">
          <mxGeometry x="170" y="70" width="63" height="70" as="geometry" />
        </mxCell>
        <mxCell id="z-Ndg-riCOtdtnBjnOYB-2" value="" style="endArrow=classic;html=1;rounded=0;" edge="1" parent="1">
          <mxGeometry width="50" height="50" relative="1" as="geometry">
            <mxPoint x="170" y="998.05" as="sourcePoint" />
            <mxPoint x="50" y="1000" as="targetPoint" />
          </mxGeometry>
        </mxCell>
        <mxCell id="z-Ndg-riCOtdtnBjnOYB-4" value="" style="sketch=0;outlineConnect=0;fontColor=#232F3E;gradientColor=none;fillColor=#B0084D;strokeColor=none;dashed=0;verticalLabelPosition=bottom;verticalAlign=top;align=center;html=1;fontSize=12;fontStyle=0;aspect=fixed;pointerEvents=1;shape=mxgraph.aws4.queue;" vertex="1" parent="1">
          <mxGeometry x="274" y="573.5" width="78" height="47" as="geometry" />
        </mxCell>
        <mxCell id="z-Ndg-riCOtdtnBjnOYB-6" style="edgeStyle=orthogonalEdgeStyle;rounded=0;orthogonalLoop=1;jettySize=auto;html=1;" edge="1" parent="1">
          <mxGeometry relative="1" as="geometry">
            <mxPoint x="110" y="803" as="sourcePoint" />
            <mxPoint x="33" y="803" as="targetPoint" />
          </mxGeometry>
        </mxCell>
        <mxCell id="z-Ndg-riCOtdtnBjnOYB-26" value="" style="sketch=0;outlineConnect=0;fontColor=#232F3E;gradientColor=none;fillColor=#B0084D;strokeColor=none;dashed=0;verticalLabelPosition=bottom;verticalAlign=top;align=center;html=1;fontSize=12;fontStyle=0;aspect=fixed;pointerEvents=1;shape=mxgraph.aws4.queue;" vertex="1" parent="1">
          <mxGeometry x="269" y="783" width="78" height="47" as="geometry" />
        </mxCell>
        <mxCell id="z-Ndg-riCOtdtnBjnOYB-27" value="" style="sketch=0;outlineConnect=0;fontColor=#232F3E;gradientColor=none;fillColor=#B0084D;strokeColor=none;dashed=0;verticalLabelPosition=bottom;verticalAlign=top;align=center;html=1;fontSize=12;fontStyle=0;aspect=fixed;pointerEvents=1;shape=mxgraph.aws4.queue;" vertex="1" parent="1">
          <mxGeometry x="370" y="940" width="78" height="47" as="geometry" />
        </mxCell>
        <mxCell id="z-Ndg-riCOtdtnBjnOYB-105" style="edgeStyle=orthogonalEdgeStyle;rounded=0;orthogonalLoop=1;jettySize=auto;html=1;" edge="1" parent="1" target="z-Ndg-riCOtdtnBjnOYB-27">
          <mxGeometry relative="1" as="geometry">
            <mxPoint x="470" y="790" as="sourcePoint" />
            <Array as="points">
              <mxPoint x="470" y="840" />
              <mxPoint x="470" y="840" />
            </Array>
          </mxGeometry>
        </mxCell>
        <mxCell id="z-Ndg-riCOtdtnBjnOYB-106" value="Subscribe" style="edgeLabel;html=1;align=center;verticalAlign=middle;resizable=0;points=[];" vertex="1" connectable="0" parent="z-Ndg-riCOtdtnBjnOYB-105">
          <mxGeometry x="-0.1173" y="1" relative="1" as="geometry">
            <mxPoint as="offset" />
          </mxGeometry>
        </mxCell>
        <mxCell id="z-Ndg-riCOtdtnBjnOYB-29" value="Pub/Sub" style="sketch=0;html=1;verticalAlign=top;labelPosition=center;verticalLabelPosition=bottom;align=center;spacingTop=-6;fontSize=11;fontStyle=1;fontColor=#999999;shape=image;aspect=fixed;imageAspect=0;image=data:image/svg+xml,PHN2ZyB4bWxucz0iaHR0cDovL3d3dy53My5vcmcvMjAwMC9zdmciIHhtbG5zOnY9Imh0dHBzOi8vdmVjdGEuaW8vbmFubyIgd2lkdGg9IjE4LjMxOTk5OTY5NDgyNDIyIiBoZWlnaHQ9IjIwLjAwMDAwMTkwNzM0ODYzMyIgdmlld0JveD0iMCAwIDE4LjMxOTk5OTY5NDgyNDIyIDIwLjAwMDAwMTkwNzM0ODYzMyI+JiN4YTsJPHN0eWxlIHR5cGU9InRleHQvY3NzIj4mI3hhOwkuc3Qwe2ZpbGw6IzY2OWRmNjt9JiN4YTsJLnN0MXtmaWxsOiM0Mjg1ZjQ7fSYjeGE7CS5zdDJ7ZmlsbDojYWVjYmZhO30mI3hhOwk8L3N0eWxlPiYjeGE7CTxkZWZzPiYjeGE7CQk8ZmlsdGVyIGlkPSJBIiB4PSI0LjY0IiB5PSI0LjE5IiB3aWR0aD0iMTQuNzMiIGhlaWdodD0iMTIuNzYiIGZpbHRlclVuaXRzPSJ1c2VyU3BhY2VPblVzZSIgY29sb3ItaW50ZXJwb2xhdGlvbi1maWx0ZXJzPSJzUkdCIj4mI3hhOwkJCTxmZUZsb29kIGZsb29kLWNvbG9yPSIjZmZmIi8+JiN4YTsJCQk8ZmVCbGVuZCBpbj0iU291cmNlR3JhcGhpYyIvPiYjeGE7CQk8L2ZpbHRlcj4mI3hhOwkJPG1hc2sgaWQ9IkIiIHg9IjQuNjQiIHk9IjQuMTkiIHdpZHRoPSIxNC43MyIgaGVpZ2h0PSIxMi43NiIgbWFza1VuaXRzPSJ1c2VyU3BhY2VPblVzZSI+JiN4YTsJCQk8Y2lyY2xlIGN4PSIxMiIgY3k9IjEyLjIzIiByPSIzLjU4IiBmaWx0ZXI9InVybCgjQSkiLz4mI3hhOwkJPC9tYXNrPiYjeGE7CTwvZGVmcz4mI3hhOwk8ZyBjbGFzcz0ic3QwIj4mI3hhOwkJPGNpcmNsZSBjeD0iMTYuMTMiIGN5PSI2LjIxIiByPSIxLjcyIi8+JiN4YTsJCTxjaXJjbGUgY3g9IjIuMTkiIGN5PSI2LjIxIiByPSIxLjcyIi8+JiN4YTsJCTxjaXJjbGUgY3g9IjkuMTYiIGN5PSIxOC4yOCIgcj0iMS43MiIvPiYjeGE7CTwvZz4mI3hhOwk8ZyBtYXNrPSJ1cmwoI0IpIiB0cmFuc2Zvcm09InRyYW5zbGF0ZSgtMi44NCAtMikiPiYjeGE7CQk8cGF0aCB0cmFuc2Zvcm09Im1hdHJpeCguNSAtLjg3IC44NyAuNSAtNC41OSAyMC41MykiIGQ9Ik0xNC42OSAxMC4yMmgxLjU5djguMDRoLTEuNTl6IiBjbGFzcz0ic3QxIi8+JiN4YTsJCTxwYXRoIHRyYW5zZm9ybT0icm90YXRlKDMzMCA4LjUyMyAxNC4yNDQpIiBkPSJNNC40OSAxMy40NWg4LjA0djEuNTlINC40OXoiIGNsYXNzPSJzdDEiLz4mI3hhOwkJPHBhdGggZD0iTTExLjIgNC4xOWgxLjU5djguMDRIMTEuMnoiIGNsYXNzPSJzdDEiLz4mI3hhOwk8L2c+JiN4YTsJPGcgY2xhc3M9InN0MiI+JiN4YTsJCTxjaXJjbGUgY3g9IjkuMTYiIGN5PSIxMC4yMyIgcj0iMi43OCIvPiYjeGE7CQk8Y2lyY2xlIGN4PSIyLjE5IiBjeT0iMTQuMjUiIHI9IjIuMTkiLz4mI3hhOwkJPGNpcmNsZSBjeD0iMTYuMTMiIGN5PSIxNC4yNSIgcj0iMi4xOSIvPiYjeGE7CQk8Y2lyY2xlIGN4PSI5LjE2IiBjeT0iMi4xOSIgcj0iMi4xOSIvPiYjeGE7CTwvZz4mI3hhOzwvc3ZnPg==;" vertex="1" parent="1">
          <mxGeometry x="448" y="658" width="90.67" height="100.21" as="geometry" />
        </mxCell>
        <mxCell id="z-Ndg-riCOtdtnBjnOYB-30" value="" style="sketch=0;outlineConnect=0;fontColor=#232F3E;gradientColor=none;fillColor=#B0084D;strokeColor=none;dashed=0;verticalLabelPosition=bottom;verticalAlign=top;align=center;html=1;fontSize=12;fontStyle=0;aspect=fixed;pointerEvents=1;shape=mxgraph.aws4.queue;" vertex="1" parent="1">
          <mxGeometry x="620" y="578.5" width="78" height="47" as="geometry" />
        </mxCell>
        <mxCell id="z-Ndg-riCOtdtnBjnOYB-31" value="" style="sketch=0;outlineConnect=0;fontColor=#232F3E;gradientColor=none;fillColor=#B0084D;strokeColor=none;dashed=0;verticalLabelPosition=bottom;verticalAlign=top;align=center;html=1;fontSize=12;fontStyle=0;aspect=fixed;pointerEvents=1;shape=mxgraph.aws4.queue;" vertex="1" parent="1">
          <mxGeometry x="620" y="816.5" width="78" height="47" as="geometry" />
        </mxCell>
        <mxCell id="z-Ndg-riCOtdtnBjnOYB-64" value="Third-Party APIs, Topics&lt;br&gt;" style="rounded=0;whiteSpace=wrap;html=1;" vertex="1" parent="1">
          <mxGeometry x="993.5" y="470" width="326.5" height="92" as="geometry" />
        </mxCell>
        <mxCell id="z-Ndg-riCOtdtnBjnOYB-67" value="" style="fontColor=#0066CC;verticalAlign=top;verticalLabelPosition=bottom;labelPosition=center;align=center;html=1;outlineConnect=0;fillColor=#CCCCCC;strokeColor=#6881B3;gradientColor=none;gradientDirection=north;strokeWidth=2;shape=mxgraph.networks.mail_server;" vertex="1" parent="1">
          <mxGeometry x="1150" y="836.5" width="105" height="105" as="geometry" />
        </mxCell>
        <mxCell id="z-Ndg-riCOtdtnBjnOYB-74" style="edgeStyle=orthogonalEdgeStyle;rounded=0;orthogonalLoop=1;jettySize=auto;html=1;entryX=0.5;entryY=1;entryDx=0;entryDy=0;" edge="1" parent="1" source="z-Ndg-riCOtdtnBjnOYB-72" target="z-Ndg-riCOtdtnBjnOYB-64">
          <mxGeometry relative="1" as="geometry" />
        </mxCell>
        <mxCell id="z-Ndg-riCOtdtnBjnOYB-75" value="Subscribe" style="edgeLabel;html=1;align=center;verticalAlign=middle;resizable=0;points=[];" vertex="1" connectable="0" parent="z-Ndg-riCOtdtnBjnOYB-74">
          <mxGeometry x="-0.3635" relative="1" as="geometry">
            <mxPoint as="offset" />
          </mxGeometry>
        </mxCell>
        <mxCell id="z-Ndg-riCOtdtnBjnOYB-72" value="" style="sketch=0;outlineConnect=0;fontColor=#232F3E;gradientColor=none;fillColor=#B0084D;strokeColor=none;dashed=0;verticalLabelPosition=bottom;verticalAlign=top;align=center;html=1;fontSize=12;fontStyle=0;aspect=fixed;pointerEvents=1;shape=mxgraph.aws4.queue;" vertex="1" parent="1">
          <mxGeometry x="875" y="600" width="78" height="47" as="geometry" />
        </mxCell>
        <mxCell id="z-Ndg-riCOtdtnBjnOYB-77" value="Subscribe" style="endArrow=classic;html=1;rounded=0;" edge="1" parent="1">
          <mxGeometry width="50" height="50" relative="1" as="geometry">
            <mxPoint x="559" y="656" as="sourcePoint" />
            <mxPoint x="609" y="606" as="targetPoint" />
            <Array as="points" />
          </mxGeometry>
        </mxCell>
        <mxCell id="z-Ndg-riCOtdtnBjnOYB-80" value="" style="endArrow=classic;html=1;rounded=0;entryX=0.75;entryY=1;entryDx=0;entryDy=0;" edge="1" parent="1">
          <mxGeometry width="50" height="50" relative="1" as="geometry">
            <mxPoint x="610" y="820" as="sourcePoint" />
            <mxPoint x="548.0025" y="768.21" as="targetPoint" />
          </mxGeometry>
        </mxCell>
        <mxCell id="z-Ndg-riCOtdtnBjnOYB-81" value="Subscribe" style="edgeLabel;html=1;align=center;verticalAlign=middle;resizable=0;points=[];" vertex="1" connectable="0" parent="z-Ndg-riCOtdtnBjnOYB-80">
          <mxGeometry x="0.1301" y="3" relative="1" as="geometry">
            <mxPoint as="offset" />
          </mxGeometry>
        </mxCell>
        <mxCell id="z-Ndg-riCOtdtnBjnOYB-85" value="" style="endArrow=classic;html=1;rounded=0;exitX=0.5;exitY=1;exitDx=0;exitDy=0;" edge="1" parent="1">
          <mxGeometry width="50" height="50" relative="1" as="geometry">
            <mxPoint x="776.33" y="632" as="sourcePoint" />
            <mxPoint x="560.0000000000001" y="694.4295983601912" as="targetPoint" />
            <Array as="points">
              <mxPoint x="776" y="694" />
            </Array>
          </mxGeometry>
        </mxCell>
        <mxCell id="z-Ndg-riCOtdtnBjnOYB-86" value="Publish Event" style="edgeLabel;html=1;align=center;verticalAlign=middle;resizable=0;points=[];" vertex="1" connectable="0" parent="z-Ndg-riCOtdtnBjnOYB-85">
          <mxGeometry x="-0.0366" relative="1" as="geometry">
            <mxPoint as="offset" />
          </mxGeometry>
        </mxCell>
        <mxCell id="z-Ndg-riCOtdtnBjnOYB-96" value="" style="endArrow=classic;html=1;rounded=0;" edge="1" parent="1">
          <mxGeometry width="50" height="50" relative="1" as="geometry">
            <mxPoint x="439" y="653" as="sourcePoint" />
            <mxPoint x="365" y="615" as="targetPoint" />
            <Array as="points" />
          </mxGeometry>
        </mxCell>
        <mxCell id="z-Ndg-riCOtdtnBjnOYB-97" value="Subscribe" style="edgeLabel;html=1;align=center;verticalAlign=middle;resizable=0;points=[];" vertex="1" connectable="0" parent="z-Ndg-riCOtdtnBjnOYB-96">
          <mxGeometry x="-0.0461" y="-3" relative="1" as="geometry">
            <mxPoint as="offset" />
          </mxGeometry>
        </mxCell>
        <mxCell id="z-Ndg-riCOtdtnBjnOYB-101" value="" style="endArrow=classic;html=1;rounded=0;exitX=0;exitY=1;exitDx=0;exitDy=0;" edge="1" parent="1" source="z-Ndg-riCOtdtnBjnOYB-29">
          <mxGeometry width="50" height="50" relative="1" as="geometry">
            <mxPoint x="520" y="810" as="sourcePoint" />
            <mxPoint x="350" y="810" as="targetPoint" />
          </mxGeometry>
        </mxCell>
        <mxCell id="z-Ndg-riCOtdtnBjnOYB-102" value="Subsribe" style="edgeLabel;html=1;align=center;verticalAlign=middle;resizable=0;points=[];" vertex="1" connectable="0" parent="z-Ndg-riCOtdtnBjnOYB-101">
          <mxGeometry x="-0.1595" y="4" relative="1" as="geometry">
            <mxPoint as="offset" />
          </mxGeometry>
        </mxCell>
        <mxCell id="z-Ndg-riCOtdtnBjnOYB-112" style="edgeStyle=orthogonalEdgeStyle;rounded=0;orthogonalLoop=1;jettySize=auto;html=1;exitX=0.5;exitY=1;exitDx=0;exitDy=0;exitPerimeter=0;" edge="1" parent="1" source="z-Ndg-riCOtdtnBjnOYB-107" target="z-Ndg-riCOtdtnBjnOYB-111">
          <mxGeometry relative="1" as="geometry" />
        </mxCell>
        <mxCell id="z-Ndg-riCOtdtnBjnOYB-115" value="Data Sync" style="edgeLabel;html=1;align=center;verticalAlign=middle;resizable=0;points=[];" vertex="1" connectable="0" parent="z-Ndg-riCOtdtnBjnOYB-112">
          <mxGeometry x="-0.1433" y="-2" relative="1" as="geometry">
            <mxPoint as="offset" />
          </mxGeometry>
        </mxCell>
        <mxCell id="z-Ndg-riCOtdtnBjnOYB-107" value="" style="sketch=0;points=[[0,0,0],[0.25,0,0],[0.5,0,0],[0.75,0,0],[1,0,0],[0,1,0],[0.25,1,0],[0.5,1,0],[0.75,1,0],[1,1,0],[0,0.25,0],[0,0.5,0],[0,0.75,0],[1,0.25,0],[1,0.5,0],[1,0.75,0]];outlineConnect=0;fontColor=#232F3E;gradientColor=#F78E04;gradientDirection=north;fillColor=#D05C17;strokeColor=#ffffff;dashed=0;verticalLabelPosition=bottom;verticalAlign=top;align=center;html=1;fontSize=12;fontStyle=0;aspect=fixed;shape=mxgraph.aws4.resourceIcon;resIcon=mxgraph.aws4.batch;" vertex="1" parent="1">
          <mxGeometry x="-160" y="880" width="78" height="78" as="geometry" />
        </mxCell>
        <mxCell id="z-Ndg-riCOtdtnBjnOYB-111" value="" style="sketch=0;outlineConnect=0;fontColor=#232F3E;gradientColor=none;fillColor=#4D27AA;strokeColor=none;dashed=0;verticalLabelPosition=bottom;verticalAlign=top;align=center;html=1;fontSize=12;fontStyle=0;aspect=fixed;pointerEvents=1;shape=mxgraph.aws4.data_lake_resource_icon;" vertex="1" parent="1">
          <mxGeometry x="-36" y="954.5" width="78" height="78" as="geometry" />
        </mxCell>
        <mxCell id="z-Ndg-riCOtdtnBjnOYB-116" value="Lakehouse for Data Analytics and Reporting" style="text;html=1;strokeColor=none;fillColor=none;align=center;verticalAlign=middle;whiteSpace=wrap;rounded=0;" vertex="1" parent="1">
          <mxGeometry x="-68.5" y="1032.5" width="140" height="30" as="geometry" />
        </mxCell>
        <mxCell id="z-Ndg-riCOtdtnBjnOYB-117" value="" style="image;aspect=fixed;perimeter=ellipsePerimeter;html=1;align=center;shadow=0;dashed=0;spacingTop=3;image=img/lib/active_directory/databases.svg;" vertex="1" parent="1">
          <mxGeometry x="-23.5" y="572.5" width="50" height="49" as="geometry" />
        </mxCell>
        <mxCell id="z-Ndg-riCOtdtnBjnOYB-118" value="" style="image;aspect=fixed;perimeter=ellipsePerimeter;html=1;align=center;shadow=0;dashed=0;spacingTop=3;image=img/lib/active_directory/databases.svg;" vertex="1" parent="1">
          <mxGeometry x="-23.5" y="776" width="50" height="49" as="geometry" />
        </mxCell>
        <mxCell id="z-Ndg-riCOtdtnBjnOYB-119" value="User Management Service Queue" style="text;html=1;strokeColor=none;fillColor=none;align=center;verticalAlign=middle;whiteSpace=wrap;rounded=0;" vertex="1" parent="1">
          <mxGeometry x="250" y="628" width="120" height="30" as="geometry" />
        </mxCell>
        <mxCell id="z-Ndg-riCOtdtnBjnOYB-121" value="Trip Management Service Queue" style="text;html=1;strokeColor=none;fillColor=none;align=center;verticalAlign=middle;whiteSpace=wrap;rounded=0;" vertex="1" parent="1">
          <mxGeometry x="250" y="840" width="120" height="30" as="geometry" />
        </mxCell>
        <mxCell id="z-Ndg-riCOtdtnBjnOYB-133" value="" style="rounded=0;whiteSpace=wrap;html=1;" vertex="1" parent="1">
          <mxGeometry x="-360" y="520" width="130" height="560" as="geometry" />
        </mxCell>
        <mxCell id="z-Ndg-riCOtdtnBjnOYB-134" value="" style="shape=image;verticalLabelPosition=bottom;labelBackgroundColor=default;verticalAlign=top;aspect=fixed;imageAspect=0;image=data:image/png,iVBORw0KGgoAAAANSUhEUgAAAMgAAADICAMAAACahl6sAAAAeFBMVEVtmgD////7/Pj+//34+vP7/Pnx9eatxnCnwmXz9+u1zH71+O75+/WauU/v9OOsxm7c58Hj7M/p8NmGqyyxyXeQsj63zYGUtUSevFaivl15ohXL26W6z4eOsDnl7dLB1JPG2JzU4bOApyHQ367e6Ma+0o3R36/M3KY+u5LUAAANQ0lEQVR4nNWd2XriOgyAQzYIBErZekpLC5TOvP8bHiibJMuy7Diko28upm0w/m1ZkuUlSa9FKdK6TtPi59/xf0Wb35W0UWhWp1lelqO8zuAv81FZ5lkKfxlP4oOUs9JR0+z4SPSvjQqSpnlZ6x6tqzxNY353NJC00DLcpS7jwUQByVJ/iKukZRyWCCB506oU1ah5LRqDzKLYoGzWtIRmIGkWoS3PMmrYr01A0qrRVxtSNUEJBkl7eYOvtUgd3i2BIGl8j3aR0G4JA2knyrjIJOhTISDtdcdZgjolAMRviGe97Cg9vy4MQPEFKVRDvJ5Nt8P+63g5XycXWc+X49f+cDudqYKA3BfFE8RZifSw6o9vtedlPe6vps6KegY9fiAurUrfZAQoW1ff+vlaLxC56PL7RY9xkuW7bKC8SDxASmmq+rFY+lGcZbN4FgrNPMyjGiQVdDb/nIdQnGX+LbS8fr6iBbF/WbH9L5ziLONPe321gZASxK7MVYPOuMverkRKR68DsX7NZOgwtWpZWGckuoGiArENj+kmEsWPzHeWr1ENFAVIbgkvPjytrVuWNhOmMMRuEEshX9ExflDeQkmcIBbVfW8D4yR9r2roQfimGL22xZEk//FxkMsMO0BYjmoRy1Sxsu6zFtdBIoOwHG+tYvzI1p9EBOE4iha16i5jzuKKJBIIO8AGj+BIkld1hdwgXH/MGsdVWnn5UFbJCcJ15LT94XGXnReJHYTx5x7zvxjyqaqUC4SJr1pzgjZZmHWwhl02ECbkfNAwh/KiqpgEwnRhBxxHN68m4UGYMfUQ92HK2GxS3p2wIIwidsRxJFFVzwJiDvRO9Oospnax2RwOxNTCzvrjJEtFBXkQQy1XXXIwUxTOmzAgxkh/sB80xfCMjDEyQYx5za5rDiZaMUkMEMO4zbqmOImRlTAsFwUx1W/cNcRJzAFPSSgI7ZDsqWuGs7zSilMX4Uo+dGp4oRiOkZAREDrS/zqK3w9Wu9nkLCHVu3x0Nn1/cuWQ6TyejHcMQvuvlCk+Uf+GgMAhmW5lFppbwZXFINRlLqSCN8QwNAXpOQwL9YtYexAIHUAjaWY7NIZbc5DsXfpG2iXoZ3GwS5kGM98cAeRYOYFEHO8QhCrWUKjBzsSOAtKbCk8PyLNQuQAIHelfQpHMzC0SSE9yXNRygSoLqiWtG0zbA5HM+Jw8C3QIgBCn/iwUuObAI4H09sLzpAGBvbmDUM2S1s2ZPE0YCFeONDRpl9wrfS+KOHUxeD/AJ2erxeC/o4SAjI+fGyyGyASKIcIXruXdvd9AaIeI65xAI4ooS3AbGHBID1q7xDbYxWbZgAclRfCQhbZI4r9uw/0GQmIwMTj5o+05vUDz8SE9+ITrebNQVxDi/kfitwLoOg5HkoC1j0J8kNT0+uMVBNvBQjKByNZIjthLvkGh4uLFmt++kJAeOstW/M49eDJahn4ICpXV9RvXNUcgJMyS5+ktjHUcpMuWfIPrWiEQnIXM5e+EUahoFHwEBoSOBC32eBkEIU7kWy4ILlRGA4GFOhIeK1zbAoAQzXJMn2Hj9WOBwG52gOxxbUtrj0jhIgWJli2CIK7WwaEj6BGiWa4B3DkIiVnrGwhZcHA5685BSMBV3EDwEJFzQMkvAEnwFojyBoJ9pcNmPWCwOwsdogqnVxAyRJw7kbvvEaJbNQsih2wnaQUELqm7uxnH6ukFBAdaW2cpHk5YLzDwcINg3covIMjluzsETQmi7RaCXk4RLqDGry4gaKwr4nIY38Xba+oHAud2V9XCMZhiBRf6o3j7noAzU4TU2CdOfkCwUVbYU6CgWXOAqwC9UExycPb0DILdoWLJ8B10anOAq4D2lJK1F8GLiqMTSIZnuQpdATFbxCVfsJiuWfxClT5OShLi1jXJBGAxok1HUB5Fo7DYk9RHEOwOFU0MMzeNqw8EtKgix4SSnUeIhORPFNYXzOXkrJGngNSbr/09Nam3X4czzai7O769avGOql0eQbDRUpjwdoYI6unMbXKwIzFB3G6kHXd4EuASnVMJ4kiqIwge/s6dDkswpiLvG4ILa865BF4ZzbOEnCJ2+cM9tA3RZlVm3TI5aUs9Yp0m5KCk3BJjtM6Cfc66Pxz2uUTSYDh8YnRwf3oe/x7lp7/kNsVzq6JOapx5sKa0Pmeziqz4QTWcv53/SKOL/e787JS28PkwVbaDLoPsV86q2cy6e48sY9YJyW1bh6+5jgtHyPzmVnFSbH1r5NGeLy6DJOYBGHuODbdqnWDHbg8ODBAUooKID7Xh7v575GpBYIWSNgu6zGsHwZqUJnTbkxYEzVugTqC2gJ+AXQJrgQwlXS/Wg+Cf1T2CxwKaQgMfgIw9sHFo4wSefRDtsoPgHqA9ogSZkKk6OgZZWQBBH6K53AGX9YL+2DLIjJjGv/CPIJIMAcHnXPUggaqFzSKq8Pb+e7QECwIzpHJYtcjCWmiP6Ac7ihfHliKQsYcuCjYfSo2R1ee2Vev0JIqTgU9GZmBnqRIY0mhO06cbMPRWK9whwhpvbsXiKeb+lmvKccxwHwjQIRK9EkGoQyT3GVlDlLeyolcfQdO1mZ7/uCMtsb80wDMt+BK1HSAHWa/t5VVpTagYIYpX0PiK+gVPdPeL1XDBTLb3/dWKCybni+FqgeMWbHjltLIRNHqG8ciVRd5ujmJGV5LOCOO9J1bg4T+RCC4Cj4k4k+PGxMp7qgtn/XGnusBibZ0Pm1Nd7+QDGFRRp4hAa4uQ5IN3Ogh0iSJJq5em6SDvBB3o1KgJOpA7VPQ02dzYMGUacVUB5csU1/iYKdNGSeyIBhi0j2axwkxiE3etMESgMcTth34ChohmWYFs+Qta6AFf2c5Cj+scUcIu9JClN4WytLP0BhRWsY7pXnr7hxdD/8nlaWR9T21gbBhQaP2v3TCAffuns5BfsIUDHxy7buGgs1+X/IJNNXiTw3VTDZknO1cif+02J+LcnfsOut94hm3WbeMZMcBOv9p9j9i2AnrqVucgZONvZgP5d7fLEpKDo5zOQXZmh/Bbyh0LkV1vKV/jyNe+pdxlt+B+/GggMM/kAMEbGi+VT2D3XOWXH7tgr0G6gJBDiHIo2PFBGOINRwiEHE2S4y1o/aJdYgMtkZy3xfkTcjSJHhaTpxngyccfFktIoxcYhByKq8SiwMTfMZz0oj6+R+44pMf36IFK0RrtwINRLmDGqwRiSooczjcOVFIRC4Mz/xaOuIrWH+ezmCOudM1LbGkwovIoZ1znULWlIULCLO7QMdEtcckANcth2B+/LJdh98YfPzd+Gu5geWL0TS42Zo6Be50Db/VgvmTR6Snwe+oFFEWWRaXQsdWrEiSl3uFH+csr6L1BUpdwt3BHApGOeNERwl9eQXVLurGNu8U2EogUvSmvE6FdIvkS5j6ROCDSaU7afJYLXszr0ISE9tq8RDgKSCXMhYybTW1X7hiXIEnquh7Sex8jgGRbaU7ncQkSVS5xtkHvJIoAIi6O0/02wrVUhnLJmaH5G3q+KUj2Vw4SqDJLF4UZXbJ1VGTz9HmYVGcJASnPH50cPvuuvD7dcCNe3WbKr7jc8CTiSGdA6PWGj7km3i1jaohc1xuaV9C28lYLX6ExlvvCSfOuX9d9Aw+RA62V8wpQ5r7TX3ApK93mwFwnrbkmd9s1x7uzisp39EQ9geQv9A49VnRXSXc64PdGQKa9Spq5Bvxh74Yw5cXgUF/uzd1n3pljXJqRPvumCH6MmEYh64iE4RCvpaLCaGEn2mXqld8rCdjHOxjx5jj3fUkEO04eboUHJof1nYxWEC5R497dEVUMPxgEwtqGh0YrRlxiqZQLhP1Q/BfV2WRjxIkihxiisG9betD8hLuHN/T1T/wrS9KHOJQX7quDX8hl+ei2fQ7mfUmuNwY7ol+WZBL51DSVJ1aFHG8+doXxfHeWLerXC/+204avEbQOsNZeucC+5C3Cix2tJu8t6otPrzI3z09LlfACsRZyiI4y5+4M13GoprrW18F+RVqbPsv+zfImt1ivo+3ZQ87sI5oBGzzbXkgX8QXB0nuTJ65bJlTCLLe4vzoERLB+9Wfj+GvzLRSvrKAWRFTU6r1Bt+xXgu4U6pfNq0GOump/q2Ivmy6CBv68P5VKbeNF8yeRm2e28rTH86Hs5nL1W+Z7niBOez7yuCJ7yL/R+C7aV8yfxQ/EPfTy3WLg3JWyHCz+OJXfxUnEE6SXqtpp9PznfTEYL+dgo896vhwPFu9fh5EwKm5S+6jVSXxBjih+TVUU6UmsSQNWRr4YISDeKN4y8qM+SwiI2tuGSVjhYSAtdkrlr1U/EghyRCn9zKNK6jIQowFIzyd+0EnAEL9LE5BTC0brljy8M36kGchRZhqvoCimaQGNQXpFTq9085Ws8oqqeGkOcpI0XC+Khip1lTggR6kDalRUGb39JliigZykTvNK6ZWLozppJ38qiQryI5OZ0yqPJvFDg/ggvdNNPmmvLKsc3wFZ1HlVlr20DgmlnNIKyEWytK5Pge/Pv/r4/1YILvI/4Mao7AY+AN4AAAAASUVORK5CYII=;" vertex="1" parent="1">
          <mxGeometry x="-330" y="535" width="65" height="65" as="geometry" />
        </mxCell>
        <mxCell id="z-Ndg-riCOtdtnBjnOYB-135" value="API Documentation" style="text;html=1;strokeColor=none;fillColor=none;align=center;verticalAlign=middle;whiteSpace=wrap;rounded=0;" vertex="1" parent="1">
          <mxGeometry x="-325" y="608.5" width="60" height="30" as="geometry" />
        </mxCell>
        <mxCell id="z-Ndg-riCOtdtnBjnOYB-137" value="" style="shape=image;verticalLabelPosition=bottom;labelBackgroundColor=default;verticalAlign=top;aspect=fixed;imageAspect=0;image=data:image/png,iVBORw0KGgoAAAANSUhEUgAAAOAAAADhCAMAAADmr0l2AAAAhFBMVEX///8AAADm5ube3t7i4uLV1dXZ2dng4ODR0dHIyMjW1ta/v7/Ly8uxsbHFxcWhoaGCgoK3t7elpaVzc3N6enqKiopXV1dlZWXz8/MgICBJSUmVlZVtbW0aGhrv7+9ra2s/Pz9QUFA1NTWZmZlcXFyPj48oKCg7OzsVFRVFRUUsLCwLCwvhjq9BAAAc3ElEQVR4nO1d55qzvK4dSA+B9D4ppMyk3P/9HSS5yBTbZMr77fOMfiWEYC9b3bJ5e/ujP/qjP/qjP/qjP/qjP/p/S6tGEl9nl/vpGWh6HBfT+STqr/51775GrXi0CRx0mg57+3/d0ReoE0/XLmyMlsP+v+5xDepMLjWwKVpMmv+65z4UzaohPDabNE03G0McOe3mrX/dfyutxiVTdzpcJ1E3zKuTVTgYn6fH4v3z9j/puwcleXS3w3Dg1B/73jn/v8fkP6hc99dcL2dRDd0YxlPz3+//sWnsHIzu3V9RF43zJ3/GMfn+br5K7QXvWRrnGazTyyz94vND3PD8+LxMt3EvLDxoP+Ey+TH+ne67qMPhrYcGujC6Xqo0Jtx9OPdyoxFu+e/RbwIppz1nzim31q2C8iin3TQ25zJhI/bo/i6cAs1ZT9nkhTVN/W5mSFw40j8t/qUfN2bcpAUmPD9qoZNIuOyuGKde/wEypI7WCA8lLKvJ6RV0RHduADXE27/hU82dNzV73WVl52ercB/jp32zE1ZqnnRc1sL09+F1dRcn8lr8UdZlQaPshgQ/wa2WG4Op8kf3erx+exK1Rz2Sl4a2TlsAzieFmPERy4e2lDj/qiS2b7LZu3RZzrkuzoMcVQLsgJNeYO2zbEuN2/H3HFQt/nKkJ2bvhplhi3M9nme3RSUA1+IRvVHuD1vxwz6VVwa/A291lw0uxZgmu1zf8GpuDqsAMjvX3poaeCiuq7E6v/0CdVX7wjToEZZ0oh9MW18FMLt925APHxt/CW7C/O8l8MPP41MisRDTtw0KdBH3GtFBNUCmQApjlYr5lezw+dP4VNgmpK9RZhnAaq3yMGwAYQbnl/GqzHoIPu2Jr7ef9dyk+H0I9zgf5eoJucPPIbs4k9/vBYA3uAJ2tdTFO1FbK/lj5+fgraQyEY5FWOGVgeVfH+EOLbDEXKApIeLoG/eDBenkH3LXH4UnIeOWH0swqvkQ3lROI2gC7RME73APMxbIWyF5JKaGBfWfdxN2b22dVxVCLcX9h7waOcY3YdtzWZRch9fnTg7KRT8qNO+HS/n0WsschoYxpD+CsCEentLXlSVoMBIy2keZyUtN09UG3b/PPQIdQC7hpNQky/9A9rTBW858RNVyOomiSWr0Tiq6JqpSLUy3YWu/CpP81APH5/weVDvtImTFRt+edGuKBwt5V/3ZCHXa4QqQrmRhLyrMnBtXJBiGXAIAZ4hkUNkhYh3J3cWM1ZdIPlY4L0o4RvqW1AAo/jAdGwm3UlrAv81L+FjyTee6sQcyhGTmb3W9V+KhQrjfZZPv/CYVYYCnxuyDi+6Zge8ZV256xMAVb0txf+4Zwo/vBCgUthDtVPUEvjUPjyX+EPEpSfwBZpSmxlfRDuhMlDXN/siYgjs234dvY7SrFTo496Rt0DLKyzOUv9dJ8f0qZbxKhOaiKdv5JhJaT/AnMw9gDoQOAImQnsbdlrlw0xNa6euUb8v4tcEuxYWuvkRCC4rIhXf+TUsntFXumJp0Sj9dt+BArnWe6Wb+jEZWiMO3GIuuMVrG5MAF8RF8/nxIXgrw7eC4Ax0e1Jw9bLHwVJTDWPfgiySmaE7fTNECvmT8W1Fv8GRd/AiDRqq/zsv+cllJEw8t9os3oIEgdkm/DvCoh5U7JUgoJxhhvOuhMGmReWVD5RZ8hBm/dRTCa8Zpx6j4p4jGEaOGW/FnyuLQyA7Le+1Pc/bIvLshxm/7uYn1rSb18KJEiPg0witiu7RL/gdU0KCK0EF6o6d8UQyFAJJfVGyMr26V8FIgM2WEUOCTCK9i7i6Nwv+AblUPDWRqBq3z7msAOY4yn1KPX34ekqfGRwgVPkJ4VbyJCBt5cUQVk0/XScL0Grk0X7KGB/aIcudLpu3P+R8+wyBhUz6MnyETp859zmQv49J2cbltXM71RAPdpS8Eh+RvkQCWqpCMnvMoGZdJytpk6aHpT4eGL5e+lfnky17JRUkrNay31wHSoyiYdtrnPCVXLlsfjSEP+eZxK2Vf+/MKYasmyr3iuIxsGGxECyyUs/Qx4gZl8vepMxMgfwwhyJ+2FsCflbq0kuZ6Dl6sAKMmiUEHnq1OZLSO+kUhJP2iEJL8NaVaQflTunRTrlSLhLKHnH58DSB51X09UF6tTjU+hVDqT4FQ6s9mqvEpe7iRuQM3Yc9QD77kdVNnyOWtXrctIoRoWOlPRKjtAyLU+rOz0fgEwk0hP1pNGG6vNNaaxEapxJuqptY7s3+AcM3sQ4aQ24eMS5l9yBDWmL9A2ApMqL6wOkrO7IRh9aWkxQsqT+02dyfPXSNd3Opz+7Dom7GfizByJG+1doaGZp40jKUAtIzGTc7R67ahH0ehkcIeNLj/fm/USOUAoSbFEatdpUCgMMj1UeDM5cj4s6WyUpn8PU8sj53xJ7eHGX82tYuW8Se3FlVuGid0kh/qkz+Rm0eLcT51LyPldKB+UQjX4Y5ZC5I/jRDlTyFE+dMI45KFxwJhPINC/W7FUzGBKMSVSyylCIX+FAgRn0Yo9ItEKPSLQCj0i0QYO4o2BGEXsZFaU0gSeMTPXu1IhMo+IEKBTyJU+pMQKv2JCJX+JISxMx9O9IAu4uNqTeFcj47fQAqELH7IECp8hJDZB0DY1qooQ8jsAyD0xccTlnWWfvEPpzoTCAgjI6rozjpMTXw2uP0LhkOj6Ksx5f7ZpTv0HlaKJVBca/jcNHwY5hbiPAuZBiEwFxDP5lDtDefhbmZ7oqrYrIxgCul+f1uIy3fPmhMYJLMZC+DWIXltgq7RiZvT5eLMrEXmn3VYQD8ZLmrEFmirkR28E1DUTbzdySotlShN5txaoPy1VA70Iy3881OlIO8gf001h5OMgZYaodNPBE7DaOfpC5C8J78J3IUCIekXiVDoF2bxg9kk1jSZ6wyy0C/SHk5QQJQ9DHOpyiIdVUc96/TJyKPvk683K6EbIUyEL0MIlf5Uc1gsoO+eDHwS4UToTzGHYcnWmDxB5gvVjGca+Kr+5eXE7MK1xkcI16EqkOgjwntpQyiUd20fgEsnyj4gQh98OBfkSvgZe7wVDaifb38Lg4jZh1EShMw+AJeeKlqa5eLb5ueE2b9l3w8fqU+ci21FQwaRa4Zx0rv1sZrMdaW5KbmJxQSvA1MIVsbXpRcHic6iOvRSM59qUHxtRHTtsL2Q68acpwTnV7lwU0JRsOCQJsM2VymNkWd4COxGPOqRIyWXAgsDPN2lTP5uoVKKIH8jjRDAWpJeXOjwI4ueMv5cetpDyGyi1fFIc5M0odKzM4iEhPplJ9UK6ReFEPCtLa1NGUL6oOwhyp8nQuAR8rncAAN1nyM9Es81PoVQ6k+BEJnVli9JFDAFVCBskn4RCA/2oA1kj1iv58JHhhqXA10BZzQPmH1ALtX2ARESTGtxoIKmWRURKv2JCA8uYWzLqXHyKDmMyKHOTdQZQm3/sjnc7bT9A3AjXWRfSVOBkNuHDGFT24cM4dKZ2AcuGblbk8OAOtQjgTdu8Pjo1m7zNMqsQWxlj2JoDM5tw+lttflKyKVhW4QhgqogustRTEqosMTGIyQbtznAXbvNJ33WJoCOvQDlALmBv7Q9Fg728lEOW09WCQMJp5ML/BnZWJTsob1BdCbyLHpksQXwp4cuheR9Ch8cVevku4BZccecKH8KIYLbmUoGELpSJUm5klEIUf7cQgjNEBfYw166WzRsJwEtMszEzjQT10vg3KSaMSjemzcTd43PB+GbTOBaG1yp0XAuCKqpi3KGfhcE3JVx4dMOb6mhl8CcXBrK6bEqNVJEuBhlc2NuARe+jFWZ8O1MV+1iaw5J3wsIWXybfWQT55pDsGyYh3zYGiMudorg5yDm5QHRtVHpbHus3OmbC842X6pYDsY2vTdS3be1NVV32FdBBmbZvCVc8sh0saDszRYudXO1+iYd33yqLtAjd1vBaMTTXruQMywGvGpCfYpW9XyHp1zAy6xFkIwuVi5VzGBLrlEPc8NaoMOWi0Q+ZZFwl3RiacxsNSikLPoBz7VBC1NbAThoGWzWYpgo3RSruaygnWo/cCWdvNLpB42vMumUVNcECYrkkyzhGeNh1+MkQqU/qQcybSguVyVjTIoYPolQcQhdjpz4sLrLFROS8wijbpVnhnAX2hK/vjs2Ob5C4hcCCw98mFujoWpUNqTVrFfR/LIVaHzF1P3aeyfcITDUSS51Hz588KE+o6C32pdB7wX3I/ilY6ZvxiaktlHCcwu9Sx2j4GCoj9zii+cKkOQFixpF1alrpl1060x5pD2KxvxvraUlnZajLIxj/1wOhnyAo3nbKz2qAFZH9an62afyB/Qnc6DyC6CHGnvEljwBvDQXQIE/vRLAoDswUF5UtoOOAyoG23l2O42Pabv8EjZobF98oBxUCn9pLmGT/MkUhi2N0pYTU627setom0tKwRV17xqfygflixAAX41a3EAl8aX+FAilfglxbna2PAqkDhx5GfzV2KVTSqDxdKr30A+CQhkJWlxnCk/TUiLU9gHLLLT+BC7lGYMigfJ0GELqoRNgxjBPZh8ya8HtQ6IKgfzxkQG7m4VAGcKIefHNz5sVH3pgNO2VHj7+CjPtylf0jfTSpWOswspSrlqnFuA/jg0jvTRsGlG32WiRwDqQq1K5ioa/gurL76jN0bPd52pt1jLyej1RjFfrRC0ck0vLSPCOu9wA3tp9e1k1ACQHpcq/oHkDR8fuqYH8McWd8SfPPGf8SZqmDj7k0Yw/2XIo8CcrdwL5a1qtBSQMiQOqNosQQFgLsiZ9nyGEGgohyp9G2JIFsdXWqJSEftH2EOVPISSlFtrmENwKCheqkr8aoK1sWupPgVDoF4lQ6JdeWrfMeBmQQpEIhX4RCKX+tFl8AEi9qIzpvQBu5ChiY0p/EkJVVnGrW6Kq9BQhVPoTEaqg5WbZnAcAye2o9KDwV5BQv8LpDOFMqz1AyMpGau+w1f9sBtw+ZAhvPGixAqQZrFyfwF9BQn3CwYwaVx5WHXoJS3R4JSs4afd30x8bZyAMG86FLiBQMiSDlQEh/goM7DATkmZmZsOoVau9kZ8tcSZm+57B21kBrAxD8deBN8BM/rjQt5ZLbS38khXF1oGi+ZGp8Vv49CuOBTtIGqFycCl99Oaz8gL4QP40QpA/bS1eOF5K8ijIn7YWqF+8EIJQkKqqTHWhfoyN0SzSbsLwaYRUWvguEVbnRSpprPFphEK/SIQzy2Gl+syPyiZS+HXoACgCGaU/CaHY0iMRehf+cWL4JEKlPwnhyPAJcwTBiyN5j53EJVK72z4MuH0A96Kril+JS72TFZwuAbcPgJDZB2jUig+NA/67OjGKwReWGaa2JwXx+Z27/eGjy4p737ufj9cOtBkb9i9IG+QUyka3U/taPUge9uNY2QJVasInR5VaL7f4YuSoRm+vbuDP5IM/6GIy0sBhndWxNEvbEIq0of3UhllkVI13pw3mBH92Hq9uHL4E/KT1W3PJXcZRNLHrUngCcnT1EmhL3WithAX5Y4ob+FO7+biRp0ayglM2wA2FEPgz1T4jyJ/VWmD1AX6qdqLIvsNU2wo3UnQXVGMkfxIhbQF5DR/2TyIk/aLs4Qh7ZFtXhwQC2W9LpI2/u5xRQ3Er/UkIaSPWy0csXhTCm9AvYg5H7lIZ0P4UTFhsMD7UnVZjCLX+BIRio9nLx3+jEgCEWn+mMIczj1Kgsfy/LVA7yKHw2lWeIeT2ITzJjXSv4pNJkwVf1Mm41AcfzhvqRpuTgUke1LJemyIneyPFL6OJmskKTrQG021y+3APvbbYwt+Ru22FHfgkdAS8IpSkx9Nep3afiga+cBIR8tiz3eKLTbOBT2UzVo/gJ1t9aqjGwueZGX8yxQ38SZrmKyeeBaQ/Gxphxp8+W5fB9DqVKMuMemgZlD+FkOQPEJZvkvCkRfCB+kXZQ5S/1J1DAbZxRIP0/EAYSvfZUqRfBEKpX8JTyfpjpdtQjBrHwYFaFnMo9EvqnEOARTXK1gFEmcI6DNcSqNKfiFBtRF5/lIxgWvWQ4ul2OtRGhEp/OhGqduzFY111s2OVntmHDCHfaF1SK6Z/jGbBgot3cTC08GUImX1wcOlUtePYZKeatWYtlj2++TGecKe4WHLLtXxyNtRXkUcZO/fPPD66WA/bAzPvSIoS3eXdViH8MFy5tVElUHSUeOx1N/eFFnNTbGCn1oVmk0Bzu2vx3oSc4nxbSxs4w2T8yaxFiR/B/rdoBD3mQzxtPJrxZ8N9eCcRam4cDpeXoYXQXoGqEaL8aYTFZEU3UEWDC+DlgUI4XlpULsqfRmh/xcpEzb0z4Yx3NXIDb0Eo9IuOngpPHAXLLsOnEY63ZTXkK4ZPI+zZD34ADiVRdyac0bs8U8c8ECr9KRGWDtm0y/BJhGMUh2IOc8HwSYTd6iOhsS/wP7zFtlGKCDkEx9XlrQFCZh/iTGhPJaeCICpAuNC6FhASvhKWigMjPgKEDnwswnOn84hDcFwtSVZC2H5wbRpvr6OSvbqkrKYD46ymwbs8i+NY+EOYi/8am4EDH7IN/cXjFHXaKgyfnOeFHkw5hVq1oggKc7M1710p41jk0azDZvddtWo4bboc20EYKJ3EUFrp1FwYFj6eLIsAxTrOov/Oy8DH80Tq0iKPZo/iu+m6722HtdjTvwK/hDP1CJWRvUJsHT65PYROrYssSlofRmKqEY7PWpcWgg/owFkjBPmzdwR9Z+IIr7MqU7gTo0bHUTIQdiuE24q9ZguJjyEcI89JycrzKHZVIXTpl0BMBrbjdzQ1PRo/Op+tECqmyj0MdVYqOFkgHAuZ6tIc5nmUTLpA6IEPbQTxnedpFngvxsU+xxJj77XQ5NoADFpSpwOGT3Gp+Q/JEojQqT8DkWWmZ3rmErDZjRp/J8KOoRQMV6IX7E4p00TZHI6ZTszmJ8yfqKWChgxh1yP3tdOTUr0oYRJ5oeiueQxgpib2RsjOEGYT9uwYDsNyZXBFgvlBLrgsgLiuXCc6AyGHk4rxPmkUTRemp73KLa6J6fQoLoWsQNpt8w06cWRE0m0KLFM5KAPuciaRx2EhxOCoZq3bsgxiNXsetc0Zf/LoCVzY2XgwGFPXG5inkZTx54zZw/AhtUg66XWTs7lXacatRRWh5aMBrpGuxPtRNNwJO+yElrOGEdcQcoUQ5U/bQ7xu6smnahCvX22lx0hoZKhNf3wiNsYpdIoBPVxqShHefNDMS9wCodAv0tMUV+UcknaR7vvA78DBhZ6FWkduU9fhk2dNkMCiAlTEojkXc52x1J+EUM0rIlTzSgg98VF9Mo1mHXwiaYiOj+/htzCHLMWQIeSSmaGJtX0AhEwyM4TMjwOEvvieegK9zpJRRAbwrmfTB2G3y53iODZ0a5vbv2CWGLq1N+H5s1M78T0QE21EbQkEImuF7oz3IXXmuWpH0w+KV0bSITQqJpamqPe8rBMQ9I+yhbVLq/BflCLzPJenkXKfJeNPPmcZf/KakPBjymLajD+5Lh1MP0Kn9kTC2OWooNYiUqTI2H5nuoD8aa8T5U8jBPljVS8gfzpqR/nTCEH+jj5nb1JmhZyYF5bs6BloZrz0DG0bajB8Ku8i9ItCSPpFIhT6RSL01S+BUIL4yd+J0UQjQ0eV+TGMRqj0JyFU+pMQSv1JCJX+JIQ18LHXh71UWUVuL7J5jbOFASGzD4BQ2wecQ20fACGzD4CwBj48l5LU0WtlHUKVYYzltZ9QIGzf+ULQeM4LlJ7hqcl01ixZ8kxNd+ltHwIR7tx1H+sTzT6tt9V4wfUo914Co0TiZr6XYJLLn5nhw22bdJNthXygZ0b3v1wUQI9GJvX12DJ5b3NrEcRX4zTi8N5k1uJ9wK1FZh+MBGHFS36JFrpXr6+ZC/uAmrTOu75YNhEy+mONMJM/Zi1A/liONxe/62RUiQqgl0zcczfWJhK9I372yc8UENKKhUKI+kUhJP2iEI7M7CdPfRQDX/yV5vtL78+irlDliSX7es/Df7wzfAqh0J8CocwEl9cxoYidTyfyofOrsRhE0Ch+7dVLQpNSeWT19pNsPPcl+PWqISJU9gERavswK6vkhQbRUGGuMzeF5HjqG79AImeAbF6ZY0OLW5LcYB50hpBtHXuGa57JL1n7gwRZpJ9uet+UhqMR/fILwMmBIleoKn8Bv7nOPotXBgOEjvo64EzpIebHllapSSheqn43ifiKrGG5R4N2BE3Ks3Kh+dmPuLWY9br2JVt99EYB4BG7QtP7paoqQcbb3crmCRuh3seV7954ZkqFrTc6yyfUi6UpBc3mm5hJqOlveRGo3NiOX0rMIR4fip9w0c23MKKUzjJowqVoUi1gEXQ8Q+srwu/4ppfVillJyhGKtPRVtFfnkPMcLboMCSqP1vt9tDceSvhWxAzf9AZJdcATxSR57SBvCu+4TueTba8g6K8Ke42VsFReFXEfmeeXXyhVJBFMEEeYAT55qurOei9tKQLUxoZV9KiLouiE671vIjGwVKbFjdIRLmz1Gp9hC9LYSyBHwiOE8Uv15ZMoCuurSEY4LZ8c7HeR4Dyaw5X5YlyQ+A9a2TEdf4DtKiBYQOZulEVG5Hsa6nUzjKKzXr4Wy2yE94vvHSySYBOxQqXsXaS+lJynB1tNXRHsEZ+nFr4scSd5pdJf+NY3RSO9a0Rv7ADgjfBJpuweSXApV2xzjEBe97G+fFQtQJ+rsz/U8F788Zvf9Y0k5FCImzb5NzWiOQ2jz6BXpNOzmhfFW8rPT9BXlfjosG4Zhv0EPhURCu28MkIYhJ0rWYUOm0LJd6Xpq6gOmzRHFfCESpVG+Gfwqd5KBc4yUZ/sZ0XAjGaMgYKTxDgbTPugAW2jJ1GOT6yMqezjD+FTI7gTLbCIZ170YfRWDUlY2ABpBoDCU2/IFFFU4QfdhEcmB+sLKQonSRmQBU1sRaGXL1jQRy9wHHjlmMcud6uU5bYEX8vtTI/v15+cVkKPy9KPQWlJ4hqKoCANYFpBgEyObR6gZMListJTWBC5Wv+Nb6GvIDFRa3meQllO+PoWTlA5mme6wgz2FEBzaMhxLuwdmJut1n9L3Qsk8yNySTUs+mMyj5ATKWA2vY02t5Ud7VxuIWsjhL0lB+PLr772Irn57SF3EAzy/oe6dZWMGA5ItJAUq5eYMOq9hVsjzL/JbVZmDPUbJBlGBSxj0wNZxkyT68tgXyivA4qwcCRxLsyXDryKQE8/q14MUpkJVR86znHcbRZRf1gtDygIXY5q3yggmXGvbvvSS69r00oK3lGlDaLCXpnjtWtYkuObFEv4ky00VuGXTih7vjXq+0jNzFKxY6skN7pkzItROn6C5EBlod9JsYX2jRa/yJ6SVgrOu4K4OluzgW+rkJTMfHidV9QpzxRLsHR2sZj/V0hHFAd9ypBPjWclbTQSfuL2P5g+QdrKb9jxDgWvzRPdRAHZs8Wc9RdeOP91YlZ+N2QD3drWfL/7NNL/Nt4u+Tu23UIDlmda8lM6Vsnc/dYRHJkpN5vhmdvUb0wNvk7G2tbIZKhGPE8t2O6zSZcL2H5iqJ7ZT0ZGdcgMGmb501ZWzV58Hr2nx8djvV5/PD7Tw2w7Sdo53dE5m4p19F+BB5QrvVpMah7LtR/nFdP536nOcprkI8PLeeDXx3Zc0Lqblw80+UlKinHTbrkd5zmRUdibzIqZ0Of155IuX6T9sPy8ssdlth2Ok16332i0W90kis/z97R8f+Lon5o9NzW3NYqiCgNxfamq7rdpH/ucJJ+n53T8X9KaLmrE7/41mMF9/j8FTtKqOxltHBuBH4dtZHmF5v8ENQbCysspfT6Om8NoG0cW/fpHf/RHf/RHf/RHf/RHf/Q/T/8HYFiyrZRNaMgAAAAASUVORK5CYII=;" vertex="1" parent="1">
          <mxGeometry x="-330" y="647" width="64.71" height="65" as="geometry" />
        </mxCell>
        <mxCell id="z-Ndg-riCOtdtnBjnOYB-138" value="oAuth 2.0 Authorization" style="text;html=1;strokeColor=none;fillColor=none;align=center;verticalAlign=middle;whiteSpace=wrap;rounded=0;" vertex="1" parent="1">
          <mxGeometry x="-327.65" y="720" width="60" height="30" as="geometry" />
        </mxCell>
        <mxCell id="z-Ndg-riCOtdtnBjnOYB-139" value="Cross Cutting Concers" style="text;html=1;strokeColor=none;fillColor=none;align=center;verticalAlign=middle;whiteSpace=wrap;rounded=0;" vertex="1" parent="1">
          <mxGeometry x="-375" y="480" width="160" height="30" as="geometry" />
        </mxCell>
        <mxCell id="z-Ndg-riCOtdtnBjnOYB-141" value="" style="sketch=0;outlineConnect=0;fontColor=#232F3E;gradientColor=none;fillColor=#BF0816;strokeColor=none;dashed=0;verticalLabelPosition=bottom;verticalAlign=top;align=center;html=1;fontSize=12;fontStyle=0;aspect=fixed;pointerEvents=1;shape=mxgraph.aws4.encrypted_data;" vertex="1" parent="1">
          <mxGeometry x="-323.61" y="764.5" width="57.22" height="72" as="geometry" />
        </mxCell>
        <mxCell id="z-Ndg-riCOtdtnBjnOYB-143" value="Data Encryption" style="text;html=1;strokeColor=none;fillColor=none;align=center;verticalAlign=middle;whiteSpace=wrap;rounded=0;" vertex="1" parent="1">
          <mxGeometry x="-325" y="840" width="60" height="30" as="geometry" />
        </mxCell>
        <mxCell id="z-Ndg-riCOtdtnBjnOYB-144" value="" style="sketch=0;aspect=fixed;pointerEvents=1;shadow=0;dashed=0;html=1;strokeColor=none;labelPosition=center;verticalLabelPosition=bottom;verticalAlign=top;align=center;fillColor=#00188D;shape=mxgraph.mscae.enterprise.performance_monitor" vertex="1" parent="1">
          <mxGeometry x="-330" y="880" width="67.5" height="48.6" as="geometry" />
        </mxCell>
        <mxCell id="z-Ndg-riCOtdtnBjnOYB-145" value="Logging &amp;amp; Monitoring" style="text;html=1;strokeColor=none;fillColor=none;align=center;verticalAlign=middle;whiteSpace=wrap;rounded=0;" vertex="1" parent="1">
          <mxGeometry x="-325" y="940" width="60" height="30" as="geometry" />
        </mxCell>
        <mxCell id="z-Ndg-riCOtdtnBjnOYB-147" value="" style="sketch=0;outlineConnect=0;fontColor=#232F3E;gradientColor=none;fillColor=#B0084D;strokeColor=none;dashed=0;verticalLabelPosition=bottom;verticalAlign=top;align=center;html=1;fontSize=12;fontStyle=0;aspect=fixed;pointerEvents=1;shape=mxgraph.aws4.shield_shield_advanced;" vertex="1" parent="1">
          <mxGeometry x="-114.82" y="246.72" width="32.82" height="36.57" as="geometry" />
        </mxCell>
        <mxCell id="z-Ndg-riCOtdtnBjnOYB-150" value="" style="outlineConnect=0;dashed=0;verticalLabelPosition=bottom;verticalAlign=top;align=center;html=1;shape=mxgraph.aws3.cache_node;fillColor=#2E73B8;gradientColor=none;" vertex="1" parent="1">
          <mxGeometry x="50" y="246.72" width="40" height="40.01" as="geometry" />
        </mxCell>
        <mxCell id="z-Ndg-riCOtdtnBjnOYB-151" value="Security" style="html=1;whiteSpace=wrap;strokeColor=none;fillColor=#0079D6;labelPosition=center;verticalLabelPosition=middle;verticalAlign=top;align=center;fontSize=12;outlineConnect=0;spacingTop=-6;fontColor=#FFFFFF;sketch=0;shape=mxgraph.sitemap.security;" vertex="1" parent="1">
          <mxGeometry x="-10" y="347.23" width="66.5" height="41" as="geometry" />
        </mxCell>
        <mxCell id="z-Ndg-riCOtdtnBjnOYB-152" value="Security" style="text;html=1;strokeColor=none;fillColor=none;align=center;verticalAlign=middle;whiteSpace=wrap;rounded=0;" vertex="1" parent="1">
          <mxGeometry x="-128.5" y="220" width="60" height="30" as="geometry" />
        </mxCell>
        <mxCell id="z-Ndg-riCOtdtnBjnOYB-153" value="Performance" style="text;html=1;strokeColor=none;fillColor=none;align=center;verticalAlign=middle;whiteSpace=wrap;rounded=0;" vertex="1" parent="1">
          <mxGeometry x="-46" y="220" width="60" height="30" as="geometry" />
        </mxCell>
        <mxCell id="z-Ndg-riCOtdtnBjnOYB-154" value="Caching" style="text;html=1;strokeColor=none;fillColor=none;align=center;verticalAlign=middle;whiteSpace=wrap;rounded=0;" vertex="1" parent="1">
          <mxGeometry x="40" y="220" width="60" height="30" as="geometry" />
        </mxCell>
        <mxCell id="z-Ndg-riCOtdtnBjnOYB-155" value="" style="sketch=0;aspect=fixed;pointerEvents=1;shadow=0;dashed=0;html=1;strokeColor=none;labelPosition=center;verticalLabelPosition=bottom;verticalAlign=top;align=center;fillColor=#00188D;shape=mxgraph.mscae.enterprise.performance" vertex="1" parent="1">
          <mxGeometry x="-36" y="243.29" width="40" height="40" as="geometry" />
        </mxCell>
        <mxCell id="z-Ndg-riCOtdtnBjnOYB-161" value="" style="shape=image;verticalLabelPosition=bottom;labelBackgroundColor=default;verticalAlign=top;aspect=fixed;imageAspect=0;image=data:image/png,iVBORw0KGgoAAAANSUhEUgAAAQMAAADCCAMAAAB6zFdcAAAA9lBMVEX///8AK1D///0AK0////sAGzr8///x+voAKVD///oAK1MALFMBKlD1//8AK00ALFEAFD+Wp7AaOVUJLEiEkp0AH0AAHUkAF0AAACwAJ0+cqa/T4eIAK1a9ztXp9PQAADRrfokACjwAAC4AI0sADTYAIUoACkAAAC0ACjgAIjwAJ0YAEj8AI0cAHEG8y9IAACU3T2E8UVwAAAAAGEUAHTtic4SotrwAFTlEW2+ktMB3iZTc6e0AACMhOU0AFkhUZ3wwRV0vRlZcbHZDWnK4wMVrgZJHXXUyTGaNorR/kJtSY3CFi5UTKUEMMlCRm6Ftd4HG2uN2hZdtB+F1AAAVlklEQVR4nO1djV/ayNZOMjEkM5NEFA2RISqELSKh9CoiZrlre+3d6m1d9v//Z95zJuFDiW13AYP75ml/rfKRzDxz5nzMnDNRlAIFChQoUKBAgQIFChQoUKBAgQIFChQoUKBAgQIFChQoUOANQMu7ATnA0qHf0HHD0DTNwFeMoFa/uzo6KpfLV716bMNLuo4fQXp0+KCRb4vXj6RjQIMO/9qTo8/9y7DRPt+9uPg34JewUd357WZUsxUNidAs/R/IAUKzLOh/rfxQDb0u54w5jkOIg2CU8WarfXw5uIoNRbd0y9L+kdPFMOzJ/bjhNamg0HnGCacpiISq8qb3rl+OFQPFIe/2rhsadCn4chtGxGQsGXspBYxJDrgKAgGSoRKXOMPh9V1J+UdxADoQJrgS/7njmSrn2F0ccgCZQf6qgmSoqqu6vNvYKweSOPiq5O+NA+a3rkwGjRbj6k+C+7739TEwYEKACv0niISmxCdeS1D3ZykAEhhVd7+WbcV6+91X0BqUytEhqD/ukJ+lABQGKsjhx579z7CQk/45aEFCTfLTHKCmABao3zgJ0KnKuwt/E0aqzexKu+uqDgGl/9PqAERA6kvmM++sZyTq4A0qBcMAT0c34n77L3Q9gwxSvTEUFIW3KA3g6ulG77IpVqEANAM/78dwsTc5I3TLMMpVU6zKgRDNs4nxNn1nzbBv2iYF3281Dpig3eGd8bYomDbW/hSCE0yclThAbWoyXr1Kr/1GmNAUtOmG/WlIV+v+HMTZKUvFiJH3WwAug2haaeARc10cMO68L78lxYimzLD/2BV/xSH4PjiScGW8FSmQQmAYN0Ofro8D5oLzPKzbb0YOsKHld5z+Bdf4hxxIX/uylujbZw7TlvLSC9fX/xmoPy5Jl1GuOEoiUOK2cuHR0uJLvjaTMAen0adEJRh2KSjZsu8QRWwlB/Z1U2yAA0JpeGTXyyf9s+r7arU6vB1UeoGMS/Lu8jLKITM3MBccRkkUtr2Ic4Ew/VbrtNF/jJWtEgS5QxK/d0CNr58D1yWuEJQyQkyECg4k2J6o8Z87Y4s2rnTDsOzfm4SvzSr+BHjzdHxlaPqWGE4NFGK57Tj8VUlQSTfsT4xtWWXRrOCAQ5jzyhxQ4Q8rpS3xIzXlxoP5+soccEapOuzHdmkLJMHQ4h1OXp0DyjtyqaW3DQZCtz//m27AJPwQQDv1zQaEVbnToMdDf7V1oxVoMBnGlkbumvHGI25OJBAC0WW1Z1hWvqIQOMLJjwPCmD+cKDlPh9G5cJy/sK24TnAV/BJq7oGJzKv7GnhqynWX/aXtpA0QEQ0Ma5rV9Poc6FocOmzFtfSVSeBViB5y4gCDhceI5E2BoJ1xILc6c+HAsvtduVmaJweUkmHF0HKKnzStNiR5c4CZXs5lkCQ6vj4FljLyVMw2ypECHADuevdgGvLgQLeUQTdPkzAH3w/ASuXCgT1Wt4SD9lU+awlgGas5eUfPwVuDnDhQemGu7tEcLhkGWh4Os65Uonx9gzlI2MuHA2PQotshByqL7vPRiXa/uYGNlb8F1r22c6BA0ewDwXP1Deag/CyXlUUtOBb5+kdzMFqNc+EgPha5uskLYKIxyYWDentbxEDlrN3LgwK9t1Uc3OXBgdLbLTi42yYOdl+fA1RAd9s0F3Z7r5anlKQDYSYIzIXhtlCgEjMa9Eoyd0t/nfo4zbIMu3azLZGzzHWn3fBg0LMtoGDjK+0yR0w3etftC7qJHKS/BeIQxhzSOr4dlTa/96bpWJTb6x+3BGV0W0ImNSmeJab/y3hUsl9BL8QPx77JKFZhbZEgcIFri9QP+/XNdV1TDJgFlj06uzRVd6FQcxuARXHyX5W2wvuSomwmdU1mpyvBp/DnK/ZyAGGCDz/GG8vSwfrdccRXLNbZLBxVCLN50NvM+iJYBHty1mVia8xBFkAlUGCherWRWlGYCPWqb1LqLuXecL/p52AiuOn7z+9rqjBVQUEej9bMgZ74RZOhKvizjSWTsm64//t/f9+PwFQyinUcTIKC8eRY4jVvJUwjU8X8LT47BwELoAgxORb7wk94BUxNhcuAvXOZoJkwYSgYj8bX17fRxZOyiaRWlAsKJOjrzO7WcEdFi88yUk6YGf42scF9tr94JufQQdN0JdBiY2sXB05i9q4jjYtpmvgqcVQzKXpWTaQFfnb24YbMeQo5AMhjZxzDfe14NO4+n5wcJaSN9bLrFAbN0kpwr6Vp4KrhF7npq2lxCC4rwbFm2MlUGJ5KDTQO3p6D4h+fmlylpuQChrDpw4QjcjMX3L8nH5/BBRoOTrAGUgc9fesvcwDXO5usM4rCgzrsQcTEUs0WOxhgS2S+auQ40DrSOpyh1WqKRRXKhH94cXH4FE2YFyahSITvtaO9vb1v7TDyYRJRwQ+zETWpaN0kul8zJmdLHIA00ubtOtdZDc0yRiHO1eck0LAGQyERhzD+6uX1fWWK+5s/PuwfHy6MEu/cVJ5j0MEKee7TVrtfnsSBbQdxrzL2QDb4/v3Sx9MrO6x5okB8BOGBbv/RWuIAWfBO1jgVMOvmjFDusuczT/RhHKAtRin44oGQdh+mt00rbkqT/30FbZnMCD6cLF88GBIQe+bvXuObmpUEv/bduMt27l9s0eeuehsHJQU/btydc7LUNBCvsCezdNbiLhm68XCQ6R0eniRlbfdnZzugqKhXVix5HIouy5CktxZ8bptMftvcs/WEHfmejssQemnMsbg1rNia5A0PVMLYL+5Qb4SZX7NSJjm75f+6Uh7y7vDy6wRdeCMGDugSB77wxwHoC8VaBwe60quqmXuLF0fyCJi4CgJvgjHblRzo8rQjzUhPczBGVcJSDqwnHKAs22OwJphPg6ZMvq7hKVu63ffPR9Mx1NL6Ni353dKvdmFqmq0BbrEZpW8qEc/bBzqWDct4XtdatAK0p5udlA2t1MBm3LXRHyCETjnQjdnAYbnuY+jO5ECbV7TLQ8RK+6D/u9egWvH0AKlf8QKW0ufDK8WypLgkE0tLhAuPWSh7FLwAfyw7aNx2XfG8feBhUPUssNYiBXDv3ukLxYvtHki9pYzOGVh1xxSSA2hXaVaAh+9b9h5f4AAHf37xyakg/N0ExR9nwOj+vjyBryMH3ZtZ/JccCzG9qmEMWoI4pn+WDPIHcOGft4+Sjkt3K8rqZwjIYTGu/Zc4qONZZ0r53wIdtCkHivL4r0aj2vntDsdUQauyO+MAOhD82ukiOvifJwTvXidl40a5cd5seY1vlUABDsyDkxR/lORBWqXp74MDmP8OFx1jygF93j4GXhdTo0BbOZUXVYpWq6ovcHBax5FWyrvJbGTJXFCUIw/NU/N4YOuydr12im/7Ug4MLagKk6dA+XEPHuXNjElV1kly09sp9zrw/9QhCPGLul46mHoe+FVmik7Syg8wRpmTVWbprMqBjn/vI7E03WYcaNkcyN/dBkgCcmCf8iccLKzCgZfMwjuUA82oeOl9GPXOIQ6YwjxIOdj3+Rzujzlwux+UlR1mmIB6aY8Kmr3N/gMOaHOQcrBnvsSBixzI9S9NqRymW9kkcYinmHOQfDGRoJ+QA+I04pX1gQ6iNDnGU9/+Dgdqsw/fBx1vf/s+B72Eg0nVTLxKkpyXlMGBu8AB/zEH7u5oZdsITgxIKCHOEgc84UBawPJF4gSxqU48wiASetJ8AI2CysxbmAs6cDA9Pg5GHOKkMD35A3SikOuCMgCedypTDlAfHMw5yBoiaFHz08ocgNYHq5B1dRkLtSc6+iCPF3SBA9DVRxdCmOAveEdyb8qaHM850PTgvSuHU0aOoBBIdC+XbEF/3t22CWHgbjkqnXs9/BkHCTEmpe+Tuf7QFNnFxlzwS3tVXxlabA8z9SG0gPpngY7uwOfDRQ50aSwF6LSDcYBes6WVpW30p7bxX7unKS4wliDqNxv9awz47dHtLy2MjxeD7kwOwL1k7+0ZB5ligEFDbXUOtNpx5uUJFSx6wLoyy/69tagPkINjz/PCxgMu8ELUaY/pAgdaqTdD+VKuGoQjW56diI6yUX941wUtvGCNMzlQQVaqsfSa7qMXas7BlwyvVraNIJ7nmYuoDqWdX2sKdjFu+3xBDkBJ9iqPj49X2ECMoJT7XTHnQJ4QmcY/itFvyjj3MpDH66DHZen25KFhip/gAJSp5CC+jDqZFYZEFV5lRQqQg6OLTA5c/3hcN+Tsvzn01UWdqKUubhIxgYZsi7kcaBgcTeNAy/jUMjlMK/LRxpvhN5EZu9dpqT/ggDsOBZ2L97Emn4deJgdEtE5W5QAafH+YGTL6/Xh6ZOavJD0qMZWDpOvJeFta8PmUJ3Hj1DYqs1BYA8c/uVw0jpOzPmRUADrjY9MlWLX1shwg2iOs7cMbliPC1SVhwHBsDRycHGbqxNZ9clSJ3bt0aFrrm9qFdHtahhpBZd8ToMJnHMhAcroDoin9ruwkM7vDSoCa0ZKnfcAXb8E0pJ7ZyxyQ4ZcAF0osPWhnc8A/roODViYHnozNldpD1XFdsigHBi5D4zoAxtClUeQLDGPnHGil+hSTUSdR6KBh6e5+OZA72/IcRmPyngj6Iw6Y6Z09yti09BIH43VwkC0HoGtwNI3atWeCK70oB7oeT2pxCZQFVnpMhjBT5nMBZknwr9M2Ijw9HSaHyeDOgus2d89uYnkWJdpk4+SApq7zdzjgw3IJ5eAlDlx1gxxIdQTWzLBPQpoaslQfWEb519PjMValo+NztMu4OeMABnrqKzMhnP10pLFi0xfiMDyJpS6FC9d/NX/IAa6zyD1xox5uigPAiZ/pf5CDwVVJbmMYH30/OS1vZheOPLnph2/D7P/QSmrjUw7QV2bEBV8RXQPcSsBdFQdP02Ambx3cpYWrduSnNbTZdgGiARadJOcRx5+/ZcYLhPm3a1hdvmll2gXGmuF1SR4K3WubT+RArh8wSsCLlBFTve2SOQfPY2cTjKM6z2dwyft6mojvCsd92S4gBySMS5gcVNvxMp0k4lB/dbugKI9eZskOntfzS0X6iaU9333OAQQL1KsYFm4AGH3nOxzghhyfR4lTow/49l0O0Jp0B/L5BXbfZ9k+ksNbn9bAwVWYLWUwgP5eCdeJjE9NtsSBw6m/H8jVVbjEE//gGQfJTJi6hR0qxqkcON/lAGMrXHWFz9Z3hZmptKAVq/uJGNQfZ88FPDKzEcsthMqTmClZP8BoG37FzQLLPpvvLzznABeSOq3dbioJZN+dbtTY0Xc5cMB0VicyMn6MGM9c6SKOeT5anQOtVOUMtNXzW8iz80/rerJ+kLjTi/oAJ3izL5WmrlQ8ClFNqhNxPZHMN5KF6RzY8UPVlyX0JuPv74zk7KkwnWIvyYFJq0ncOGiS7APbIF6A8H5lEnTjYzfr8hKzdaQlDuTvbmOioUawoDsgKa2EA/APjn+RwOj5nFJwZzHlcXjaarUOvXcVQ3pJRjkyU+aBA1yKec4BF42kjQ9Nl2cKK2FiuIadV924if42B03cHAYOICwwVZ7IAfiJvUlthqtIbQ6kdxlf3Xy6HjzGmGYJFJS+ykyN73IQJm388CIHbvN69XUkWccIc/UH64nZHKh+J0D/BeKqd45LUg6U2b6hDJJuTeDgyT0l7Psh2Ezz+xzM1hNJNgeueVFekQFcU9X00sHTFc6f58AR7SsIf0DF2R86xOXJWpqMpWZQrpvid5k1k/R9uh1w1Wao1s2VOFAZaO3V15WhzSddTBD5HgfniV2gFzM/UX7cYX4/dfqOhpzjnqs+jSinUB669F1tekampiVsKFcQScgEHclBJ8nGLu0vbq2COp1x4JIMncjBPI/XVPjYazBiZupd5AD+lM8T/4Dvlg250Vu+SIbKcdt12T1Q8mDBo2Da/+ml4aePXeqcQeCjy/1V5AhUw6fQXBzySxvzbpTS14VcedNxZhw03cy8YU4vHtfCAAjybdf0v8vBbspB97oeB3Fc7yc5c8BB87+TOICXvkQgvN2H2hKudpjg3Nur1Evp7YLeyWXEFtPiefSlFsdx7fFswRsEDszLlAM/jcqegfAwNtaz926UQ56do35+J5e/7tqpjySa7eHBQRg6iVEDn0C0QnglGg5dfDBRt33cPn6KkMhnFalRu/NhcF+5H3zsnLeSpLXZbRj1wugganuLW+zAAf2aNLDvu0v7YLhPQTCkWlP+QbDfzV67vhjJ4pF6w5w2VnBQVSLZP1AFeP8QEUnAdBIcomVXzJAmKGJqoqPiUfNNcBCa4CtR5+meDqMuxWRHIZ5y0EziIWPM+dKDT2RM2qjpa+LAskehk5mp7j1KW2cPvUOCOYYdghl1Jk29d6HKzEvcNKJMpQLeYosXSY4IdfYdU4ZN8ileLHmUEdC1oP5w10lGKPOh4LTZrSaGr9QBffs8ZsJtruFnRV/TiTmWbn/sqBn7bWrzU2L6apX7W/aqJR3EbH6+GcmsZKN2TAVbahtErjvBOrovoUs/KatgQewHuD0PtsCYeOZSXtQGQVr/xXVLaUYgZFqeqjB1zlf3j2ZAZ/dzxDMOiqThFa4aYhZWvLPqIzj+EtzDPzFBRIOmBbddviwG3G9e22tKRkJoeKMOTsmlG32LDZlTp8XRqxZ5AQe4QGMk++JZhzTxy9VdxAUKMHKKd0B7Lyke0RrXkg9NTl/Y+90M3NZveFdDsStDihwsyigwYpJwpK39ZMW7tpBRwxOPEfye8z+OepPeqP9S3tamcPDnVb1+V9k7X6IetbdoV9b/SBfNKL9zZZL5AuMMTBrveuft9rBLX5kD3tptn59Hvlgyi0SlbPjZ3si5io/HFHzmRdoZ5pubmC7An+6WvwIgngeXA/ympRoazDr4w9hEXReu7Lwnvr/IgTkTC3zwnrq257H8DGS6jiyAeJ4nQ/m7kySXYc2TQUZ7V42uuchBMvI8KaFx1FeteAMHAP1y8Cufy4FoVGzc7FS0jVT4Tb52iU/cjCWVnKoe5/2nJjQKy3+67+82+ShQTQse2jTDad4CEBlbuc6wH2/0CblwbWPUQa94+4ocCYaVrDss2/J8ho1xgOvkSvDnDlikvLu8BDyMvzscxIZ8gODmjk/D/DlwUOObHS8zaTFPOObh8FNNpn9s9Lk1SToZaNvg6LYddZks48tJOSSJrnKvSgiTHrb37uNpEzcPufhrTyrX3uluywePIT9Q8A781sVpePu/eunVz1S1dMUO6kcnDx/3Li938kIUfbu9HpR78qHxr/3MoqRiC29ql4KglBuCUloXJLcmXu8gSSOtu5rlGWr5IXmOmRwVTOl7NQ6UtPPpT/k/PCzdqNueZzYVKFCgQIECBQoUKFCgQIECBQoUKFCgQIECBQoUKFCgQIECBQr8v8P/AZcMF7fO8/LtAAAAAElFTkSuQmCC;" vertex="1" parent="1">
          <mxGeometry x="80" y="350" width="51.04" height="38.23" as="geometry" />
        </mxCell>
        <mxCell id="z-Ndg-riCOtdtnBjnOYB-163" value="Mail Server" style="text;html=1;strokeColor=none;fillColor=none;align=center;verticalAlign=middle;whiteSpace=wrap;rounded=0;" vertex="1" parent="1">
          <mxGeometry x="1163.5" y="948.5" width="60" height="30" as="geometry" />
        </mxCell>
        <mxCell id="z-Ndg-riCOtdtnBjnOYB-169" value="" style="endArrow=classic;html=1;rounded=0;" edge="1" parent="1">
          <mxGeometry width="50" height="50" relative="1" as="geometry">
            <mxPoint x="880" y="836.5" as="sourcePoint" />
            <mxPoint x="995" y="790" as="targetPoint" />
            <Array as="points">
              <mxPoint x="880" y="836.5" />
            </Array>
          </mxGeometry>
        </mxCell>
        <mxCell id="z-Ndg-riCOtdtnBjnOYB-170" value="" style="html=1;verticalLabelPosition=bottom;align=center;labelBackgroundColor=#ffffff;verticalAlign=top;strokeWidth=2;strokeColor=#0080F0;shadow=0;dashed=0;shape=mxgraph.ios7.icons.mail;" vertex="1" parent="1">
          <mxGeometry x="1000" y="780" width="60" height="30" as="geometry" />
        </mxCell>
        <mxCell id="z-Ndg-riCOtdtnBjnOYB-171" value="" style="shape=image;verticalLabelPosition=bottom;labelBackgroundColor=default;verticalAlign=top;aspect=fixed;imageAspect=0;image=data:image/png,iVBORw0KGgoAAAANSUhEUgAAAOEAAADhCAMAAAAJbSJIAAAA4VBMVEX///8RfBHu7+4Pew/t7u0QfBD39/f09fTy8vL7/PsAbwAAcgAAbQD5+vkAdAD8+/yqyKry9vKIsogAeAB3rXd+qn4AaQDO2c7h7OF2pnYFfgVCjkJDiEPm8OYRgBHv9u97onsogCgAYwDX4dfN4M2/0b86hjpRmVHP4c+jx6PZ59mTvZNOj04efB7m7OaZtJlpo2nA28BioGKIuIi51LlSjVKQtZAqeyp+sH6GrYZjm2NQmFBbkFudvZ0hgiG30LecxZw5jDkfeB8/gz8xizGsw6ypzalLnUuDuINvnG8AVgBDHBOhAAAbFElEQVR4nO2dC0PbuLKA7dhybNmRYwQmFLJpwGRDSHoSGh4NBUpPt/f2/P8fdCVZkuVHEpvYQHuP2u0W1Z7MF8nSzEgaa5oo7RYvtqwSNaYlq0xR5YiajqyqKorcaPm+359MovOb+dXz8w9D18lv8Pj8/Hw1v4miSW+g+X57F61a8qLXJ/SdIIg+r76OZoaHXISRQeh0g/xpkL9ihCA0hidf9y8+BR3Hbv9+hOPu0SPyIMYYGLTlaAHAiAv7QQcGwBjCEF0ddPu/F2Hv/O9b6GLDYEi6KIJPqaKXANKg3vfh58PBb0BotnxtcPkReQjL9tpCGBcAMPRGHy8IpG2+Y8K2Nuken3rYUJUvRUirSJcN4f15z7ffJ6Fp+8FkPnOxkVW+LCG7ArnDz5OOTRry3RH6g+4oREDPK1+BkF0Ew9HS919AaPKiqCWq1EmMF0WWKJtEOf29oYdBofLVCOngg+GwO7A65bRqi2J1eLFkVWdDVf6+gipxn+Z8NqBBhn+QjC90kIyLsaEKFFaRRzIcftO0MlolPVF+I06+21li+EraXI5oyVRsFooiw2d/7lK+Su0kcNY2OfDgZcdqmdu0qkao9Gpb1GwhNP1Od4iq98SthKQG/nsR67FJq6YJbS16DkkXa4JQBwjOe7Td3pDQCuYQb7dbXtiGpCD30mm/IaEWjSBIq1UjIRVF5o7ribZJq4qEdk7WppFmcBRiUKBWjYTkCuQ9vIzQpDgO8XC2lnWEn47ddWrVSEia0ZsH1QmpiTzpdlfPmJZkVsKiyBp4vIawC9EOs3p5QlLg9zEnLJgtbFEshxdi9BF/s7/3DF3ivRlbChr2fH6jIsrXgj0PFeG8lHCzKAwvqEvttIUKbUHjJKgpU6t/ZEDEDAnZFdT/xX8F1B3/T88vsNps59orNtHKNUrl9gXeHjUyN9mSqrncn59CYhqVUAugrpYfmGx/YsRj6KsREsTjgV3KtzBbzuI7iu/erhZcFfkW2niIQBm1aiQ0AFwNbH87oWk5RxCXVQujThHhRMcl1aqR0NC9aU/bTmj1T6CxTZb4QAMuivzD8RCXVqtGQkOH14OthPZgCvXtsvgHulOtgLCv4wpq1UhInsWvzhZCe/CIyqsFZoMCwomhzDCvS0iexRN/M2Ewp2N8WbW8b1qecDBFFdWq1RrwLjcQkqnjLtTLq4V1Lis18xzDOoyUFxPq8DKrlUBtEVMrco3izyn6aACf/LQFSL+wS9oJShoilShKiwq71nq7lHSw0l8uQCexAav4FqYVua/RTptEATT7ZJlrohjdsIIsPVyyJlT9Q3uAmLf0loQE8UdQHKfxBye4giy86thZwuAqNmXelJDMGQdOYS/1u24FWQAuuS+WyPIvTnNqSYcL1BtrA4Z04vL3wcgqIGxpAFUgRCM/RziZZdUChotmJ9dfv56c3LouopSKKCNdUvMUyPxjSitgIDibfv16fXIyRBBlvwaApp0CwvYgNNTLNhMC78k3s4QrJHwsfhEK0UM0GTi2Pxj0zm9+hB5QROG/REEfMP7wASkROcP9i/4i/8AvwfI+QMTiL9Gko/kaERv9Mycfk25DALtantC68Ir7QzHhsC+/GiHp7FRcFhNi76in+bZN3BU+VzoPyFVi11qqTKBCiG/T/6glgNj7yh16Gj2yiTvhLK6FLS2uOh0kt4qJMVjhCoRwzxI3CkJnJa01RgiHkbKgwC/qr1DShjK4Qi9oabcKITrmfjWPrQRSNkaHwvYUKrQs58E1VNWpPyyLxUt/CJRFgnUlvsTQw8i30kVbuikB8N7JXkJKR7vzpKggLeAYJXejKy31j4GQTfzcArGWNiatqH486onLJGkPgUw7bRjRkK5l4gWkCbByEQEkHnfBMpat7UExmATpBaM7N7GgvSd+H4+tBLx98XG/cEWs5Z/DlOrkK8pGMc5CfT1htgrdaBlv2o7c1Ncwm9ChtmgpMhhhQcirOOG5p/gIwpflkQdOaJz21qxqmv5dymkAs56dsbwPvSJC3uZ6cifrYGjcSkdEzM4Uq2O912VDbUIo5haiVhQWE/aSUQifiJEiTcjGSH5XErFgccy2dYxVk4uMFBnCJ5gnlMFRJEv842iQifm0P3nq6gsZChkRIxxczlf73U6y+K7jQsLgOhlOPgrpKUIwm0hCv38xX81/DgRhy3pQB+NEvCTs5giN8P6Ily//EiX++ZuVJjS1/ZR4eBnPlpTw7hQiBMOTuNdQwi4sJNR+SUL3SyEhWokOb/qH0EMYhqOeILSp1a/0NdKNsoSZhw7PFklU1dd8n/QKMvfEQePsivlgpHYRACdxixHCS4+OU0D3jhxBOGar+XnCPSgshti3zhF6XU5o+hE26FIwh2ZfpzZKLVOia2czIXAX69fxs3sC7Cj1mOPpoMUJ+3JcMfqCkFh3KULxQP30xDJOGBURgrAt2tAnUwsb4UE44YSmdp8iBGhsbyTEv8rvxTC1OVIJ0Udu0tlaJOYG3TunlVRU7MRIwlbAW2wgh3PIZX8is0VCaMCAE9rUAOKGxWdB6O+7KiFtcXMTIfyiWOUJoaxKZgvygb6njlBAjmM2mQIAb0N44XNRkpB35eB/+Nf1QQw09/HPztJp80sYIZCES0nokm4ad0f/zk2FBNDfTFsxL/rdJIrItIV7vrp+KAwkWWWrVlsUAl2JeIlwkOZY/8gVUnefy7IIIeMQVlvwIZ77tX1uQaO9WK3gfzspqw0HYgpfusJNwV99YbcogyXzQEK1UQoID6zya8CXXprwmyCMH1D2gWj+6YyUw8PD81GGEH6ymQ43XAfIOnTL+rRyVEL8HLR4SG/wXRKOzg8Pz1iZZ6J84aQ+wi9IL25DO5JtaODQiwuMZ4WEEP1kHZheHPfyiEn3L9KE5A5BqA2x8Acw5GJDDNJt6F1sIfRLE/L4h5TuCsveMTvcmdDZftGUX5sQ4jknjDeF4VHsmvnzozQhSggvoOpq0oeSzh3pNuSzah2EPZReqpImiWNavRniH5gIzxA6P77GY7Rzzb4pMsfFw/91hhB+asvQ+oFn5CMPaUK8cuoiPAszhNOBIDStwRwixbJVfPykDW9Fo0E+AbDP699mCL3ISpZH9iCUe1SLCcGsv5mw/HPI7006jTcRhMRCdibTZNNXEWHnUT54TBB5fmIzzEsTAmYMSq0G+yMyAa5ZiGWEYa8uws9uWrzufpaENGbsT/bYOLCuDR/hQ2w8n4VMsTON2boPYaYN8WigLlP6gy6i+znXEnpn9LI18yHI9NKN8+F+ltCYBaKXcr9XW04h8yALeyl6Znq0OzTeYngB+0l7hhlC4C4tU9XK1xZ3yEMFIcfE2dKEbd2Fqo8P6Kzr5Pdp+LKqI6osW+OB4ORzyPejpXZE+G1rcHY3c43kiaQ2TVyCZ+QxPayA+nhkgLDpLdoH90iz+CXMLiXegJbZ8kF3xc9cLPfWqI87IF3JTlzUrNVGR3zREbfYpf49MtKENChLH5mUj29rvX8gVAm5KMIVsvbs+DfEC8ZftLidQnSUskvpI1qo1XLk4aLNZe6+b663SysQan/nCYnvpWWjGMQt7x9J+1+xvI+x95OJsrsedeziEWAZ4qOMj0+e0QcBrWrlXA5je+YVCQ3kLv1cnIYwLiECBYRfYsIF8WLdhc0IL708IXHL93w+7ilaEY9/lt6/U4IQ7UhogPCol4RSpCi/NUJ5wg9sBu20gu8AfA9iwl+4gJCYdLNlhzGmvFbbOUhHol6BkHzA7LM8y6OIClycIwS4x0RZtxiPfDYjDEaFhMRUgatFp22no4nEwTqC2Y269fXSgpGGtSKAp/OlkyXUYgM7RajDs1jUFaJqUcKeB4oJyRjpPXYnmp/WynbucWbJ2L2siZA610WEdPBGcHg1DjKiLmGuDenOOyrqyYXdmPDc09cQsiNC8P6in9LKtA4hSBNSUVsIy50wWk/IVsLccLrUfFVUG8UeOx8xKCG6Z6LsMy88sxnh34i1oRlfArJPOUBQ/9JXtTLlEi8n1GNCcSpBmfFZDJg8h2XPVIh71xygIE9OqH9zrOQ+Z0qnaBBwUcEzMaFvOz4RZfUMo2fRAxQaGf8JIb8rADnpxFuCp8djLdHKv/R09SqdWG3tdi1W29jLds7sE4m9k14iigVvVauNPjORTUUF19e02mTRT5yx2pQuxtqJPOjGP36i1dJLOVQAbbG8K/iHMLOVUQbLkwU39H0iRcWBpMS3GGK6DsAItYMD1u3IzEietqzlnYjlPVE3Tp+SZ60Xpgj52sB6wvK+RX+WItTRiSgjuUkRoFFCGNHBN2lDtknkXz4j/MkiIKb/gIwc4UjKZRFXHqcZJFqlCdFHrS5C7WM6igGdAS9RKH1U4I4l4SJNyMJMxwEj7C0YIV3pyRCC7+NBn/yi5RgLQgOedxLCVF/m4aI6emk21gblVT2VcLGmDZ1nihgG6mnmABm5NvzeZyE5ekdCCNC+VkwIwkV9hMtQbUMRqCRlkhDqcCkJl/mRBnjqFhFrHIJyhDR8vI7Qr49QOzVShNIeHZzq8gNx0ob5kYY0/GdfIVx6uTYE8aor0+ooIUQqoboHAf3QthBWeA61FVJHmlCc3fC1R5T00oiLIsNIug1jZ2SlEDIjItuGxOkQhP9yZS91b7RkLE3tUvwnrl0b1U8Tbo7qx8sTSRsuJOG+K1xT4p8LUXQYyfZSA9z2EsIgviLdhnBpy6g+FDFv4J3Lk12L1FjqyQWsuBT6FutW18zsyYb+reK6AO+nJeIzvRnmVhSKK6koZ2ioOxWC+KlyI3lyozVmVgOz2uJLqNUG4/NNLfpFH0Odr67tSa38y6SVgIGnfDVkIyEv288U+yt1RxNd1WFXEQ/4CXm0ORClFqI+0YEp7VuQ4p4L45UGEnVOyC+h0vFQRHjNzuSZrQ1geBRIrVJ2KQ09pp+rHXwL8qMVheoK6UiukJKH42aK8ePBJFafiTrK+RbsO50L6ab24BYQAk9aYabfu7knts3qKdGK6KCrO+r4ZoyaCFt0PEy+QHiRrOOTThnQ1B1J6GEyy/uHtOJDQhjXZL2neIEuvsS2OkEQOIpWHXUNWEdXnczYuCOhdZEc09AN/CNI9mJoUi0uauoWE4YDsSXFZ7NPjhDAibZOKzJAp7aDwEV2P81uz2HLDobKnigyEmtrCefcTs8S6vAnXzq24hXXvAeM6fmHQq1M5yk0lAcFnYjr6iI0+ZpDTEhGli49C5gntNv7ya6vLOGezwm/ecWEurcKCrWytYvUri/gyWGrrl7KNpwohAYZ5HwzEy9tWc4Siy8iFRFmNfiXw7+teMVVx7mIsO6NeprySIvSW4WGGk1EU3ngYjNh6fmQXtMNgUII4PBC2eRJGsbyB4tn5VAV4JsXfYcTGsN436HP1xEpobhEPmLY3euRG21Fq2ByP0uflQOnPXmcUiReoCtkapgAuAd+tawRxELDYo8uC15gOPp4uZAm6vjbl1uoLkSDPVEeeQU6in8+4jF6fCwvSUIsBpytLhNzZfLzckqDzGqEg27ezGaNKGl5b87PcCi23old0Bh7YYj/ev7x+NeHMPQwTq1DG9hFyHXJH9maZH+bqMDKrnDiTHtE2F/Hz89/kQ/wPJyNmuBhP7fPe1ffIu6vdzyapaz40n0tmDHo8XRc8RiNEJOuYo2FWIyENVz6PuBd+s0Q2h0etMhHosrhFEZc10DrupIpJXURcFda/kTJrt4TK6YdrSEs2WBVCYvvw8OJ3RRhS/t8+vangkIafWumlxLLojN3wdsSgvCSbRluiJBM6Y8YvCUhQPdBWquXE+ZnC7a5cjLD4O0IdTQcUGULskYohPGuAzLj236yG0EUuW24ID9DLChy8SYdmjxhSawM/MlflzViZ6tNxgui8M3OcmOxVakoa8SOvkVL2crT/S7PYb0qIcCzKKdVbd6TSqh1Q6NoKm6YEGCYmKslCCt7T2pejG/hG+TFwG7kb8qLUSdh24ri/FevSAjQ98gq0KohQpMgooLjq80RAveRHuGuQrjLc9imB7im8DUJw7lD1wtej5AiHnhFOI0QYngX2LlzLmV66YvmQ3FosNP10Ca16iN00bKzXitOmrVpAPEtEnyrlftGCuxSeZFYeupdw9y0UbtNAwz3ur9Bq529p425Lzt3IY/d7N4T1xACfPrZ2aRVzb5FhtDxF8dhiXzPLyYEIFz1/DJ5E5siNP3B3Qw1RUgzDzzQjYpvSUiXEKe4IUI3nPe0bVrVG8XIE9JJ5EsjhAaGqwlf0npjQudXA4QAnT6OpV5v2UvJj/1ZbvPuroTA9VZjud9xCyGfF7cRigX2RJaoamdFmannkG37rJOQOPLu7K7nlNVKJGegOyjV7BDEaivKzvCCQnMzFeWjKJGjoqhg6D3+0/PLKydJ67fazDhrRJxeq8TQsbV96UsS4Gj+s+3bL9GqVu9J3EgJb1KnL19MqJPWC70f5wPNz68fbtCqMd9CEvbjJfldCGmPRhCeHKg78d4P4efsyb1qhDrNSAPh7fFlT6y31kVYUy8d84NOpQmBWFPC9AUsdP3xam851rSCwynvg/Ae6dUIURhC5KIZTaC1/21x9inodGgmpt3fFdQIId0qVYWQuApX0XkURePJZMA+wVc6fM2EOz2HYk3D+Vo6nS0jRHSTCimtnKiGCbdljcjKEm3oX8rjhpsIZa46NBpn0+ZseHNKWa3WWG2VzluIbzJrtQ1mBe2Ur+KcrnuzXpQ8cGtW1apR32JekF1r3ZxnEF9IWy/q5e8zaJJwkXT8LYT0hSPkCdzqptRMuKv3FPy7ZF59Goy4cXxz6wtd3hvhpVvSbsHwaszWlH8zwh41SLcTAhQej/mk8NqEuz2HwRTrJQiRdzLp2JtFvVPCi9QxmjWEKJxGToWAyIsIG5oPJx7YRkj659GyhChB+NL5sIasEQX7NILRthVSMn5encc3bxZVvOWjvFaStFbLW7uR6aGKCTFEN5HPDyiUMnHfl2/hL5EqKkVIB1jkntzRx88s8WUJHd4XoYbXE+rYDUE3KCuqQcJdvKcjmTgtQ0isl3B0N6gg6n0SPnl5g5vhYejeR4Mqot5nLx24uMCloMHA4cM4nVb1NyVcoZxlBpALp5dngWW3dgm9NkBoVpHF1eoqxxzZ1Ep37P+4Oe/EkeqXBkTUpMvVCGvIGqGexSBOYZLXAdDGC0e/fhLf1q8sqpb3g9aUNUJ8k6Zp+7M4dSo9OUIGlu/H++d9y2rXs4xVdxTjJd5TMHfZawsQ9MLHo4dFX/OtdLfbaSnyJaLq9S06D6ekW6LRdLUfsbcG2qZZSi3Tsn8LQjtyn6/+OY/6MltCObXIMLKgKRF/Ax+fpdexk1zi5dTyO+Pj/6QPSbxbQrqkWl2t6Grmeoed34PwBWqdT2niwzchrGm3yUa1BtG9R7OQggYJ18yHFbNGqKLKT2KDi5M4Oycl9JuaD0XZLWtE+qPLvaZ9fODFOxfpx3mHu4gqpVVTq9xCrYwoZ7lyXSMJdXDCl4jarFXja8Dr1Pp16kr79c8k/IhTkUbwxxO+RRs2/Bz+l/AVCP/8Xlrbzj2uVkbUmpGmifmwtqwRlcIShFDZh8lsGq2hCEedWSMqGJP2R5yOpVK79KWr3Ju1ehvfwvSLCP8o7+l9EDbpPVn/JXwVwj+/l/6/H2l2mS2KCevYE1UwW9SdNSK1haAjqzKiCp5D54WitmklSd/WavsDoxjvwPL+8wn/n3hPr0b43zhNE4T4S6OEv94B4cmgQUKaif+tCXXvhqVSsMkvdYuIbcdVco3Qpz/RKsXYoD+z62QVv0uIopmEX2s+5KRZm4buVbif9Ejp99TSp7/7qcp+/Ee6qp+tUgUdTlMHZ414ZWZjAorkeFDVXBbr7FL6qcj7MNPx8MPMwB9EIX8nFXiIyN8x+/1hiPXZhyFSquJ7hniGZRW9hFzHRGEvl7umNrtUXFSK0IjXvQD/j9eJE7wGqwL8imyVoQS1pDggxeV2176Bb2GkdNCZ0oaRegc5x0ml8ox/K/eBGDclKiv9XRCCfBYWufMp9TWwbyL/NWwU9R4IAW9BFUdkh8nnhUu9dQnEHTMj6t0RytZRqoSmIF+Vai+Q/RqKstW9OaHOBw+1LYz8c2iAzNcgq4AqSn9dQj4vbm9DkO+lGZx864B8sxpgbRs2tFOhOGtENsMDS1acrqOqsT2IQD54gFUZSZIII75NXBVX8X9PZ40gNk09SSrKZ41INebWQ/TIgy4yckdiS4tqcu1pZ0Ka6gfPn6KnOQ756xeqE76J5V2WEKHLPgvZEY/hDqVfbfVHEMLRuBPvIqVqjUfwTyOEvwIZhaVinCn8swjxNPDTavWGeIeR5t0R0leMZ9Uah++2DQuP8mwmxPNSJ0p2ITRrJNQrqcVeJ4WigqwRC7diGwJJmBXVZNaItH5rGgXfaq2cqdUKbl+QDL9Bq018H4dedUL0d8H2c1MbFaQt3SJKDw/tZvfqt+wz+ZaY8oTsncl5wr+rEwL2hq1GCVv9mVFVrToJ9V6rccL0y4x2IbyvToivg8YJO0eoqloGOtYK3FbtFutVRbnsbXvNElqLsDKhcdvJr+Pb/e+Vx1I97LUbb0M7fpdoJUJAX3ydUcvs3KDqswXSWo0RJtOM7Kbl2xA/Bq3MJGZbs6STlhSlwzstPYnVOR/KPQtW5BZSsMYqrgK619UyOyK0S6+qXQqM2UTzG88aobU7V9VfaGDMFlq6+yw9UJVQh6tYhWazRtAXGrhV1Ir7HA4j+S47KuUnzcNekdCAg/WEyTixO6GpHcDqr2wwvIOOZtHz1UQt5wCl361WRpTuHWTVaorQ7s9wZUIdQHhDs4pag+gGZl4jX0YUQCMnq1ZDhMT3OPdeQAgMF55cr65PoGtkLiolCo1zajVGaHa6p+rSUTlCuhaDMcI4b7pvFwWM8EnLqdUYIflx/novpYh/9h78V8oawcZl03bmp9XbcAfC0wf/lbJGyNMLWtfDYoUiUUs9G7G9ythQpd4HMHrSXitrhGIfRTMRlKqrJ64RBeCIDTKvkjVCtXG1/n28WaJZQprMLO5Ur5I1IiXLdqJ7FymL1fW/WAQYCF19Wq9Ww4SmaQ0Wx6de4gW9IAC6npDmuvRO54tNajVN2KKDc//br6EHoVt3gdAbHn3ra+1Nar0CIfHdLa3fO+/u110uzs/6mtXe/OqU1yBMydJ8UfJVpS5KVfFUdO+KsN6cCiXUegPCMrJqVKtGUf8HYm0rhs9NMVwAAAAASUVORK5CYII=;" vertex="1" parent="1">
          <mxGeometry x="1003.5" y="836.5" width="56.5" height="56.5" as="geometry" />
        </mxCell>
        <mxCell id="z-Ndg-riCOtdtnBjnOYB-172" value="" style="endArrow=classic;html=1;rounded=0;" edge="1" parent="1">
          <mxGeometry width="50" height="50" relative="1" as="geometry">
            <mxPoint x="880" y="860" as="sourcePoint" />
            <mxPoint x="990" y="870" as="targetPoint" />
          </mxGeometry>
        </mxCell>
        <mxCell id="z-Ndg-riCOtdtnBjnOYB-173" value="" style="verticalLabelPosition=bottom;html=1;verticalAlign=top;strokeWidth=2;shape=mxgraph.lean_mapping.airplane_7;fillColor=#0050ef;fontColor=#ffffff;strokeColor=#001DBC;" vertex="1" parent="1">
          <mxGeometry x="1120" y="533.63" width="50" height="22.5" as="geometry" />
        </mxCell>
        <mxCell id="z-Ndg-riCOtdtnBjnOYB-176" value="" style="shape=mxgraph.signs.travel.hotel;html=1;pointerEvents=1;fillColor=#0050ef;strokeColor=#001DBC;verticalLabelPosition=bottom;verticalAlign=top;align=center;fontColor=#ffffff;" vertex="1" parent="1">
          <mxGeometry x="1019.9999999999999" y="523.75" width="51.25" height="30" as="geometry" />
        </mxCell>
        <mxCell id="z-Ndg-riCOtdtnBjnOYB-178" value="" style="shape=image;verticalLabelPosition=bottom;labelBackgroundColor=default;verticalAlign=top;aspect=fixed;imageAspect=0;image=data:image/png,iVBORw0KGgoAAAANSUhEUgAAAPUAAADOCAMAAADR0rQ5AAAA51BMVEUAY/7+/v7t7e3////s7Oz29vbv7+/5+fn8/Pzz8/MAYv8AYP8AY/0AW/4AXv8AXf9VjvMAWf6StPQAV/gAXexPivOcvvT///vu/f/d7PiivO7y8OyuyPLu8/UAWPf3//9Hg+V9qOcAY/AAWPHP4PSIsecAXO9Cf+a/1vPk7vix0Pm9vb2ysrLLy8t0dHTZ2dk3efMTae1dlO260vTB3fhwn+55pu4rceU6fexllfKnp6eLi4t/f3/W1taSkpLW4vMfbu2Mv/aMs+ZZkei2zPJlmeWVt/RynvI3eeWIq/IlcPNhYWFbW1t6JoMXAAAVCklEQVR4nO1dDXuiONcWIiAgoEVFGsGpMFba6bR+Vjszrc/urN2Zff//73lzgnwpalXaWsez17VX2jkNuclJzp2Tk5BDDMMgJs8SEWmZg2JeoGWelo9Ohc8xIIW4Tp7qMMlqjkqFPaF+78a8IepIJ5/QQWnVHIkK6esCCA8iQpnhaFmgZZGWj08llwfhEYhAyxwti7TM0PLxqeRoj/PUKgRqCRy1BJEaS4GOhfyxqTAn1O/dmDdGnac6KKFDywUUVJO5Sj6pMm9v/m3akhOpCFRokaNFbvHXmapwHCcYhkG7wy+CFN6sLTk6pzF0fhNpmaNlgZZ5Ws5QxcCi5T25/cZfo+dS9Q5kfFctTXqjz+c/3TrMsMYbtOXNuBkLzzQ7vybjrmPriqapsioHQsqaotvt++qo4XqiiPkjYKR5HoueW/u7peuqKku5VSIR8Lru3A8bJukZ8qcfGTW23FqpZSvqarwJkTW7Pf7sUtt8JdSvP6692dh5MWIiRYpcsaczs8CzrzGu2Rz3qlKw+hNHkWNwXga7SLtcHzcs4zWalWNfi/sSc0LeWddWt4M8V/XVZb1bq38kHk5+WT9rB928s8jl1szj92zLGzLSZq2ivHwwrxZJ6Z5b+EOgZo1BFzAXtzLtVf2tX7o4W9TZDJQFFdZ71ve17biolXM+03G9gq9ymyntGhXjubzY8P26XNK9Jaq9R3Np3AytjDLlA7e/lQoa6KSha0Bs9wqgJuVK3K0taSrZczNgBs2pnJNtx3Ha7XbLb7lSXpQYLFUhvFxTNIWKBqKowQuqVLrkJakTLktu9hqoR0pO6g5c1/Xqzf8p0Hb7vONS6VAhhUE7At3764LKZyp+sefPC3K1bjUv5ZzU8v3XgaImKi6xb/0c8zwroHoF7FOeWphOIwaGECVML/VKiLr8E9HR5s9ACJMiNjq+MUiOlTdm5M0pDZwh6kyIbUKleUfsu2r5KkMN2q7N8GIt/uvwUTdSajF1/x/tPlswbTAInGczW19HceOCQMtcIYob08gys52KAfbtuLTMuY7fYR6zWIsZ6+tzvPygp/kI0M4M0eoSE+82t2/LCpVCjKWkRZkW3P5LVACoMvLjU0JV9gcuWqolhlohqJce5HV9W5AvifkPVeK7XLR1W1apZM/NxsS+ux5Hf933zVTvoMVa+PWoGcG696czqVIX+QYxceUCbd2Wt2KkaEaA2g3sq5ARnisW5W5zqZbNqKtz36V3OGIYUk6+O1jUyHSknFoS/ZXmud/Vyufl9m5EjZ/nqLULgRVhpNjmksUcCg8n9p1zyFqBOqeWPzRJc5dqWRjXyw/Cv+ao5Tsuj2vgu2rZ8fBMPRcG+9Zrvoroe62cPLZSatnkudDV3HXlHA8hj5iQfGllFkFisnD7cxXebcP4ayJQwb7Xol25XEuCpTTSGJ4boC73iTqxIcl54g+Rm1mXxCr1AfzA5cWJb6KES7L5bVETFaAm/sAeEfUzhb6+A0SNarrvm0EF9+et1oZp64bNqJsBanlK1KHnYZbMHPW+WRHII0NVapu+igXzGqwodVdMqWWzhaNWMPAdmA3JT8RqssvQoCPSZ3EgQT4DyDzlgdmsQmgeApPWZwLlf8Lca+WkO5RaSxJ1igp1B77HbhgFROhZTvmJX9KWzSrZeS4MOOV7xlepT2mbi4RHp8Z+NnquvPh3sMRWe2IeAz0jIzwjz8Vm4faJCjbBIm3X577ir/moJBbPptWykaWEjo/U0bVYn551mwfGzeiUrQ0RVcFPbX9QFtWJmFrLZtR4pgQK9gDP6ZmLDwo1bkCorFVHtK/FXmCd9s/0mO4LUDfsUGFGUJ8rsOwUs0OdQVaE2ZJh2qFjieU7odfpeitqWUC9rII7TqAALos1HWCnYiZJHBllaAjPGlBPw1cRLoPNLe0Xt6IWLx5V4NJUzBC11LJEEUKQOf3pgDI0MISCc04H+yr9gEz6C4/UWhb8dYoKWbwEEWTdRQiP1PkK5FAyNLyuDAEU0VdBpFeKc9NEK2rZzM1gdV6cwwawGN6lXEUZNDcbRioOFRjCddZXqYWxbv1qH9RBXIG8vSrpJY9MHVLbQweC2qfc+pXhq9RDKim1mvugHoaowTnw1DGUrzJBvf+4Zr2pXKTG7P96FLAL4FIra9m4vkbor9BhE4+NeOrK5B75h8Ke4zqLDA0IBUMsWPB/hBhSOAkJK/8qPoc3UtWE8wB1MadcFMifkJqlSn3/FmeRoUGjB8oIz1V6ajDzymNhZS2beXie/xnthcljsYAQpWc/8QHwcIaBQChhI9iPkQ7sCE3DH1G7cTOWd6OqyGoT1u9lQnGH4jszUrJmwzQUnLOvCAmg7zRcH8IUJGAQg75fWgx2uzD2EqhTVcxoAzBnN4iKaeeKMlmKvBdqaj6WOfh5PqNNK1YviXz6559SOO8S+libnYHUqJwly78iSPIkXWUWvZicOmwSAXpm9y2OJh6+bWSYJT1TdxsX1d8Vx1bmGTd+OiiRsJ3FnFz296P9vWt/czosarkYpM0quWKXCMwYUvt36S+3SQn/zuN6y5SHgmF4/dG4pZe1xYTQTDJvVotExC/JsqJPf7mC8YoZGvkg5YHML6Llzsa2DoBfAHDPd7D2z2VNrw58Z7yiuWsQbcHNMLY6w66tLCBe3bY1rS5mYRSqPTF3S7B9MWqEns6mtpZlOtX+ojqN10SNkNtray8y6zcVSR812Vfj4YNP+hapzm8pes/anocHGRqFhXyGgh83htg2Y7glXd38/HcS/QIlmhtkaKxBNM/QWB1lIqXmyDlczDl/X20pQ2MdImZjhgYx7q6y+cnvKfK0mTEjZdCFvWUi/9sLRGazRI3rn2CxJ1G6+d7gVop8vz3qNawVm/cQ77Vbv4ncHXBnm7tmaPj8LU7xEGrewybOFEL7ZE473M5WZlgAThHkDK9GhJZzhpOslUHMJ9LT9sTDkFp0d8BzmvqMV2bybsvNIPM3pz9bPLCUyiE7L7VqZcVI6QaGNrHID6hvS9ksGF5H5PEeqJP2UG/JxBVCUjYeOIfJRgMB1GizhaMl1Ev5DAZs1zkDzPPYbR826LCv98/QgO06P4jPjA95TIPI46wiw1UVor1kIkc1/XBHtC+AOgtuRrvahjA18toHTEZ9IeQsG9QT0tV3FktQDw/YUc9lR9SL6zIEaQJKDZM1V3z/4VAFUGeQoUEP1bRN8mtjcrhENBT5vplFhoYFp3TGUO7oB+61QKSul0GGBt1Wk1r/Eul+ANAU9f6MFJ/DYKar6o2gX39+L258Bu3r/VE/r+UlkqyqmqatvQNkLwlRSlKwzbP2STv0dcoosMapUxi94UG1ncpd6Z/RaPjP3+OWY6uvMNtJ/oNsp11ptdoVx7E1+phVfS61zAwyNJrTFVBkvds7f2oaRkEQCgXDMMz+aGxr2XZ5kV4bcv9cc02r2SwUmt7ToPY8dlZf0SC1vAwyNOrpc5iqlwZ1EfNsRGxZjBlzlM39CaHI+rRmNkWMMev3DymK1lOjamvpfyC16hnw8Ch1Kl61XjKhGh7ubzLdget5FnkFEDyun7WzWqAUyXPGHWgvxnBNFDynScqkYQYyh+mReTjetz8jTUOtVq7IYEEF0Tzv3bd1kMp979yEtRxC5lhPac0uqOV2DRIREHLPqlMHHmN3x6O+JbLk9SLzMvU5jvc6qNX7J78tk7Y9n7uLZC632z2XNtIaZcNctXsX8uuYq/F8BstRn2F3L0z/ZfxKi3BsjzplFCyj1sYeJMmYPVuVEl5EUvUeJMjmxVkWsJVPHk/a0rlbvIFDUiq1JrQRN1JgE9T7Z2h4i6jVy7ogYKHWTtvY1No1gdBbo7a/kSu9JnEOXi/t1hGpfO9CEjbTX4Ztmy9g4MsZGoF3oz6dNROoi5AXS/7FK63g5JLe8xBj0JjqXiKPoTvd7oqpWnZqcJ4LNZZer/5UmKdfUH+9hGjur0OVZW7GcKK50NeOS57VHK8GpY0hS5a533Mmd+DQ7aC92i/bZ9BE9Lz4WgjqfXm4OW4lSZByBqD/XdEDVLTL5nxVvofYNTij56wje/oM9jggfJv89f6o/17gHFILzoz31puvMoROGK57M5tEHlsILU0pofg9Aaf2iY0v3Lyj97dFvcRaPy28SBsOHZzrqQuAyChgO5XZq7PtPnETlxsGiVTxYNOtm2yj3je2XF8v5jNYl8ka5d9NXnxKhsRlyP9L3lAnVZ5EEY1272x5TCjQLJyoaBahCs9J0nytxPE8N0s+R3e5WPrFLhkai6iVzyg8VOyLao/PrvpXZ2M78dueyEenh7cXvY/QU5gpT0BLWrs06/fPR107jltvYDa8TCX43WAxOXnbDI1F1I6H/ONZc2uW7MnAtydhUIq3xx4QC915xwAOSyR8n1w5M0XfKq+mYa3Ejd5DzvBdopFw4cR+jHQBNYTPopN4kPPfEOcXZIhYPI8xBvWZSxxa2E60IRmusXEE1BTP28t5z7G+JeOfX+AGmaOGM0VmdERDavfJ+iesJna+zp9odg4k22RxcxVhUwkFjrWXG9qhsdGhdJUw8e1RL7LWBOoiPT8WHpgswqVOCWKLYzxU/0m6qyXtFkuDKyMik4JTUgkGbVVjyfYev/B2y31uSx4+529suO+Z9FwVjxWjmZmeSotvjaL4oasRZq273SJK8m+L9aJghn3OJR+E6k7oOnXXYOPHBOAwgbEQLUwgWrmTuwq1/K/FihESe7Dk9vvhW5fHIosnu01n6kTEUf/JU2uRX6BRWDHByCbZjHKezlK2yNBIoCaDiLXCsSvfWUvVWGEPwWUZeLQbam0k4kY4QykX4hLq6BSNOqSoY8kTq1BvwUgTqLVfmH+KnvcsLFXDRb3bNvnwRpstRZlh/Fc4kPQ+XkIdLfrJMMsn+1pvGDujTrNwbYZjB4y0M25poMR613nid+3rcgPji6gilxdp6CT+oHCcEWe6gNp2F8f1thkaSdT2OY6NN21GL/BKpDzgs7CLHBNv2EBYjfonxqNYRcu5FTHUdwafQA3xcKrOb87Q4NMzNJL+WiduNKJ/ysxYcgVGZNNOHe3KxMudOMOxzWWfY/2O+tpC9bYUDesMMjTEXjkGG8hDPRrXPWPJ7aPwBJfUBtTqTjlagDqazcp9tMgv8FPoq9QSB6ijP9ZmK+6yezk3Y73nu6hGgppB7WiWpkes49Ww0dlasjpj9unrTmhThJ4uoSZUKSBnQ5xEDXmkezJSouNGfIuijha9un89ZjytOOohmVAYtOts1oHbvIKf4KzjQnu5asxfJ1GTOX2nvl5Yl3kR3aOoIyTy1ItVA3E3L1rga5/RXn3N3EdVXSSGUp7FQLznfW27CdSS7aIdMzQK8WhqM3q8fWUITCd6C9rQSARZjYA7F4G4FQRj1zm8wwhG7Gy9M+ASkV0zermEKokFL0JdvjAS6ReFFEQvydDAjTAGbMNqg5lG+6j6LBGSOQsGQxFuUySrkR0ZKfFceRwNbDIzun5b/K8h1GPhVwhe5sNloKRPrHw2d2iIF0EcnqAm0/Tn2GpWH9bnHy0soHovtuBTasQq16BeMbMXA9QsLF1CJbndQPPMbt5wp7FaHRMVwtWHqo8sPkm8ds8ZFhtTXYNDtnoNUNN5OmiQ2qqZFsbYMmfx/GkyAzGAuizvIhQ1voqFzSR9fFWnB7X7PTvmS9UhYgrskw2fgyk7VbL+YrNCzeJmZ1QqlarVnzwk13+Oh2LlsjOtTqpTJxFC1mtwIhT/qlZLVKogseKqsl8cd6A56D6x3tMr49Jk3EqE5yTYKiB9fVmtTi4a3q7nNNeOAg7zdKA0w3tf5g2Cb/AkDFW+b9JzsPw81mWkn7L3y8sqHP2ciR8sKIaGL8FzkhHpMuwDgFEFtbziHRrCphTx6AqNvcTYtFcmj5sZPOald2jEItWpotfELG7EY62V2wD+d25aT/xLmpvVHRrir3Wwdbh3LJ/B3XC8t26LUK689a1u3GxlcqVEejqLxoAKb67eO1Vb7tvfrnwV5txEH9qB/6vtfobfCcTWUE9EacPtB2XsoXe4XdmspiQRSHrVzPj7n1ctRYq/Vr+jnTNmq1rWjust7tDgmufT2OnzogRpKdNGk8vq4yNzFcMbtbX5xZ7zvUNN77nGdrVsmaEx927Up/sOMFAh5tcvtXVFliWJfi2uPelYsEfxgqyILVSI0zfPxnYZMlUhh1fRuyM4isluVcsale3vN0P1zlnprtvq3pXOOnX0Wt9w5pDZGFanrdbv8aQGd8K883f3gFVZIMCqMv0c3sLrJdIkjxGBvu1cS1aoAxX2Lb7XzWZSy5Y8PPOviG6vwr7KV0TFzfkML0h5+GAqG+/Q2BiI+ogqf/CXoA+kMSfUr4w6G2L7wVRyq7ybz9/o+zk6lTV3aKRVcyQqb/P960NTOaHe9ysnH0clQM0u5DOwsXwG9uhUMvzKyUdS+UNZygn14bc3S9QZfOXkY6nEMjQKwQXKUE5PeTgWlYOPIL2Kyh/Pzd69MSfUr4z6kIbbW6lk8ZWTDygZfOXkA6r8wdzsQBpzQv3aqA9ouL3duF6bz7B0RdyRqGyVoXEsKn8qNzuhPvz2nnj4XhkafuTBz2cgpTCfAcrzlIejUzllaLw3ZTox0hPqU4ZGNirBniYI9W4MzWKMp0uy6NhU+FOGxntTphMjPWVovEmGBruY8oCOTeWUofHu5OHEzU6ot1FBf16GBsHMhYcaEVXh+XUZGnQNPs9noGtwP8gaK38ElYeHL4/X/u0bX/JU5fomrZajiiB9u715uLl58Ms/eJ708pebI8/QQNc3N1/Jf1/y6OHrt68/fnz9/p35csN8/8Ev1HJMjBQ9cN9uxNtb/vr2OxL+u324Fb7lv1x/vS0cMw9HD8L3H2L+Vry+vgYLv3389l/++r//eGEZNT14+e4jMhOV69svj/nvNze3N48Ifb3975YhfX1z+1VYrIXN+VdfzPe/SCnYC+Oi8gdREbhv4vXjze0jI3x9fPy/28fv374+kNns8UFYqOWoMjRY/vHLzcMDMWL+x61AfLso3NKDnku1HBU3g1FeQFQDBj15MSyM46NnpGgLRnoI7X1LlT86Q2M5h2Ep5eGYVLg1GRpoc8rDB1U5Jm52igyfUJ8yNNIyNPy5Loo88JvjFx9TJWApvnfzfTr1btRYgivmjk3l/wFqoX985+FP8QAAAABJRU5ErkJggg==;" vertex="1" parent="1">
          <mxGeometry x="1241" y="521.37" width="41.34" height="34.76" as="geometry" />
        </mxCell>
        <mxCell id="z-Ndg-riCOtdtnBjnOYB-182" value="User Management DB" style="text;html=1;strokeColor=none;fillColor=none;align=center;verticalAlign=middle;whiteSpace=wrap;rounded=0;" vertex="1" parent="1">
          <mxGeometry x="-27" y="632" width="60" height="30" as="geometry" />
        </mxCell>
        <mxCell id="z-Ndg-riCOtdtnBjnOYB-183" value="Trip Management DB" style="text;html=1;strokeColor=none;fillColor=none;align=center;verticalAlign=middle;whiteSpace=wrap;rounded=0;" vertex="1" parent="1">
          <mxGeometry x="-28.5" y="840" width="60" height="30" as="geometry" />
        </mxCell>
        <mxCell id="z-Ndg-riCOtdtnBjnOYB-187" style="edgeStyle=orthogonalEdgeStyle;rounded=0;orthogonalLoop=1;jettySize=auto;html=1;exitX=0.5;exitY=1;exitDx=0;exitDy=0;" edge="1" parent="1" source="z-Ndg-riCOtdtnBjnOYB-186">
          <mxGeometry relative="1" as="geometry">
            <mxPoint x="20.000000000000227" y="510" as="targetPoint" />
          </mxGeometry>
        </mxCell>
        <mxCell id="z-Ndg-riCOtdtnBjnOYB-190" style="edgeStyle=orthogonalEdgeStyle;rounded=0;orthogonalLoop=1;jettySize=auto;html=1;exitX=0.5;exitY=0;exitDx=0;exitDy=0;entryX=0.019;entryY=1.065;entryDx=0;entryDy=0;entryPerimeter=0;" edge="1" parent="1" source="z-Ndg-riCOtdtnBjnOYB-186" target="y5XBQ-hBJ8qoXVHfpkLI-26">
          <mxGeometry relative="1" as="geometry" />
        </mxCell>
        <mxCell id="z-Ndg-riCOtdtnBjnOYB-191" value="HTML, CSS, JS, Images" style="edgeLabel;html=1;align=center;verticalAlign=middle;resizable=0;points=[];" vertex="1" connectable="0" parent="z-Ndg-riCOtdtnBjnOYB-190">
          <mxGeometry x="-0.635" y="-1" relative="1" as="geometry">
            <mxPoint as="offset" />
          </mxGeometry>
        </mxCell>
        <mxCell id="z-Ndg-riCOtdtnBjnOYB-186" value="Road Warrior Analytics and Reporting Dashboard&lt;br&gt;(For Internal Users)" style="rounded=0;whiteSpace=wrap;html=1;" vertex="1" parent="1">
          <mxGeometry x="-310" y="337.73" width="188.5" height="60" as="geometry" />
        </mxCell>
        <mxCell id="z-Ndg-riCOtdtnBjnOYB-193" value="Mobile client" style="sketch=0;outlineConnect=0;fontColor=#232F3E;gradientColor=none;strokeColor=#232F3E;fillColor=#ffffff;dashed=0;verticalLabelPosition=bottom;verticalAlign=top;align=center;html=1;fontSize=12;fontStyle=0;aspect=fixed;shape=mxgraph.aws4.resourceIcon;resIcon=mxgraph.aws4.mobile_client;" vertex="1" parent="1">
          <mxGeometry x="75.52" y="75" width="60" height="60" as="geometry" />
        </mxCell>
      </root>
    </mxGraphModel>
  </diagram>
</mxfile>
